<svg id="svg" xmlns="http://www.w3.org/2000/svg" xmlns:xlink="http://www.w3.org/1999/xlink" width="400" height="328.3154121863799" viewBox="0, 0, 400,328.3154121863799" version="1.1"><g id="svgg"><path id="path0" d="M365.189 58.677 C 364.015 59.134,361.059 60.217,358.621 61.083 C 356.182 61.948,351.527 63.613,348.276 64.783 C 345.025 65.952,340.074 67.731,337.274 68.736 C 334.475 69.741,329.672 71.470,326.601 72.578 C 323.530 73.686,318.527 75.470,315.483 76.543 C 312.439 77.615,309.817 78.574,309.657 78.673 C 309.497 78.772,307.110 79.642,304.354 80.607 C 301.598 81.571,296.831 83.271,293.760 84.384 C 290.690 85.498,285.665 87.307,282.594 88.406 C 279.524 89.504,274.573 91.284,271.593 92.360 C 268.612 93.437,263.937 95.097,261.202 96.050 C 258.468 97.002,256.058 97.888,255.847 98.018 C 255.636 98.149,253.292 98.984,250.638 99.875 C 247.984 100.765,245.351 101.710,244.786 101.975 C 243.760 102.455,237.571 104.659,228.571 107.749 C 225.952 108.648,223.530 109.541,223.188 109.732 C 222.846 109.924,220.334 110.860,217.605 111.814 C 205.798 115.938,201.714 117.428,201.282 117.771 C 201.028 117.972,200.415 118.233,199.918 118.352 C 198.689 118.645,198.749 119.140,200.522 123.351 C 201.350 125.319,202.480 128.186,203.032 129.721 C 203.584 131.256,204.157 132.669,204.305 132.860 C 204.453 133.052,205.249 134.953,206.073 137.085 C 206.897 139.217,207.866 141.608,208.226 142.399 C 208.586 143.191,209.632 145.723,210.550 148.027 C 211.468 150.331,213.073 154.360,214.116 156.979 C 215.159 159.598,217.074 164.327,218.372 167.488 C 219.669 170.649,221.383 174.918,222.180 176.976 C 222.977 179.033,223.692 180.780,223.769 180.857 C 223.929 181.017,226.463 180.211,235.304 177.186 C 238.736 176.012,243.612 174.375,246.141 173.550 C 248.670 172.724,251.404 171.766,252.217 171.421 C 253.030 171.076,255.837 170.112,258.456 169.279 C 261.076 168.445,263.662 167.567,264.204 167.327 C 264.745 167.087,267.184 166.268,269.622 165.507 C 272.061 164.746,274.204 164.012,274.384 163.876 C 274.565 163.740,277.151 162.855,280.131 161.908 C 283.112 160.962,286.044 159.969,286.648 159.703 C 287.764 159.210,294.644 156.886,302.956 154.195 C 305.484 153.377,308.257 152.407,309.118 152.040 C 309.978 151.674,312.564 150.781,314.865 150.055 C 317.165 149.330,319.787 148.450,320.690 148.100 C 322.242 147.498,327.462 145.737,337.110 142.560 C 339.458 141.787,342.312 140.796,343.453 140.357 C 344.593 139.918,349.987 138.076,355.439 136.263 C 360.892 134.450,366.461 132.547,367.816 132.035 C 369.171 131.523,372.126 130.501,374.384 129.764 C 382.940 126.972,393.277 123.426,393.505 123.205 C 393.635 123.078,393.073 121.352,392.256 119.369 C 391.439 117.386,390.189 114.212,389.479 112.315 C 388.768 110.419,388.032 108.603,387.844 108.281 C 387.510 107.711,385.331 102.335,381.758 93.268 C 380.797 90.829,378.882 86.100,377.502 82.759 C 376.121 79.417,374.421 75.205,373.724 73.399 C 373.027 71.593,371.993 69.007,371.428 67.652 C 370.862 66.297,370.132 64.450,369.806 63.547 C 369.481 62.644,368.789 60.991,368.269 59.875 L 367.323 57.845 365.189 58.677 M39.811 72.660 C 39.627 72.886,37.639 76.691,35.393 81.117 C 33.147 85.542,30.375 90.936,29.231 93.103 C 28.088 95.271,26.789 97.783,26.344 98.686 C 25.899 99.589,22.988 105.205,19.873 111.166 C 16.759 117.126,12.844 124.663,11.172 127.915 C 9.500 131.166,7.763 134.461,7.310 135.237 C 6.290 136.987,5.858 136.690,12.005 138.455 C 14.866 139.276,17.484 140.096,17.823 140.277 C 18.161 140.458,20.977 141.350,24.079 142.258 C 27.182 143.167,30.013 144.066,30.370 144.256 C 30.727 144.446,31.466 144.713,32.012 144.848 C 34.276 145.409,40.345 147.237,41.872 147.817 C 42.775 148.161,45.952 149.177,48.933 150.075 C 51.913 150.974,55.238 151.998,56.322 152.351 C 57.406 152.704,59.844 153.455,61.741 154.019 C 63.637 154.583,66.445 155.470,67.980 155.990 C 69.516 156.510,71.880 157.249,73.235 157.633 C 74.589 158.016,77.176 158.828,78.982 159.437 C 80.788 160.046,84.082 161.074,86.302 161.723 C 88.522 162.372,90.960 163.126,91.721 163.399 C 92.481 163.672,95.690 164.698,98.851 165.678 C 102.011 166.658,105.484 167.752,106.568 168.109 C 108.695 168.808,114.002 170.446,123.244 173.254 C 126.456 174.230,129.340 175.165,129.653 175.333 C 129.967 175.501,132.364 176.252,134.981 177.001 C 137.597 177.751,140.550 178.667,141.544 179.038 C 142.537 179.409,145.936 180.495,149.097 181.453 C 152.258 182.410,156.530 183.725,158.590 184.375 C 160.650 185.025,162.361 185.519,162.393 185.471 C 162.884 184.739,172.213 166.873,180.788 150.246 C 182.371 147.176,184.547 142.964,185.623 140.887 C 186.699 138.810,189.210 133.933,191.203 130.049 C 193.196 126.166,195.252 122.232,195.771 121.306 C 197.589 118.069,197.425 117.908,190.289 115.914 C 187.051 115.009,183.883 114.067,183.251 113.821 C 182.619 113.574,180.328 112.906,178.161 112.336 C 175.993 111.765,172.668 110.801,170.772 110.193 C 168.875 109.585,165.328 108.548,162.890 107.888 C 160.452 107.228,156.905 106.196,155.008 105.593 C 153.112 104.991,149.787 104.017,147.619 103.428 C 145.452 102.839,143.440 102.239,143.149 102.095 C 142.858 101.950,140.420 101.231,137.730 100.496 C 135.041 99.760,131.511 98.733,129.885 98.213 C 128.259 97.693,124.565 96.590,121.675 95.761 C 118.785 94.933,113.391 93.359,109.688 92.262 C 105.985 91.166,100.887 89.685,98.358 88.970 C 95.829 88.256,92.135 87.167,90.148 86.550 C 88.161 85.934,84.348 84.824,81.675 84.085 C 79.002 83.345,76.268 82.530,75.600 82.272 C 74.931 82.014,72.094 81.189,69.294 80.437 C 66.494 79.685,63.955 78.940,63.651 78.780 C 63.347 78.620,60.661 77.828,57.683 77.020 C 54.705 76.211,51.186 75.189,49.862 74.747 C 43.334 72.571,40.384 71.959,39.811 72.660 M195.932 124.795 C 195.411 125.788,193.656 129.187,192.033 132.348 C 184.481 147.050,182.470 150.939,177.341 160.755 C 174.322 166.535,170.020 174.865,167.781 179.266 C 165.543 183.667,163.518 187.344,163.282 187.436 C 162.839 187.611,159.926 186.825,154.921 185.182 C 153.338 184.662,152.008 184.236,151.966 184.236 C 151.923 184.236,151.936 186.426,151.993 189.104 C 152.219 199.586,147.184 209.180,138.916 214.024 C 136.336 215.536,134.722 216.336,133.069 216.926 C 131.466 217.499,131.344 217.614,131.540 218.380 C 131.657 218.837,132.171 221.133,132.683 223.481 C 133.195 225.829,134.203 230.189,134.923 233.169 C 135.643 236.149,136.406 239.475,136.617 240.558 C 136.829 241.642,137.581 244.923,138.288 247.849 C 139.838 254.264,139.892 255.277,138.727 256.040 C 136.588 257.441,135.771 256.113,134.151 248.604 C 133.664 246.346,132.905 243.095,132.464 241.379 C 132.024 239.663,131.013 235.230,130.218 231.527 C 128.947 225.605,127.844 221.232,127.122 219.250 C 126.895 218.626,124.396 217.775,111.658 213.982 C 109.039 213.202,106.010 212.273,104.926 211.917 C 103.842 211.561,102.365 211.100,101.642 210.893 C 100.920 210.686,99.442 210.241,98.358 209.905 L 96.388 209.294 96.223 227.826 C 96.065 245.692,96.036 246.375,95.422 246.825 C 94.606 247.421,93.758 247.415,92.662 246.807 C 92.182 246.541,90.164 245.867,88.177 245.309 C 86.190 244.752,83.309 243.869,81.773 243.348 C 80.238 242.826,77.209 241.886,75.041 241.259 C 72.874 240.631,69.844 239.722,68.309 239.240 C 66.773 238.757,65.074 238.237,64.532 238.083 C 63.642 237.831,62.046 237.347,53.366 234.695 C 48.389 233.174,47.343 232.335,48.406 230.711 C 49.417 229.168,51.456 229.526,63.383 233.340 C 68.068 234.838,77.828 237.808,84.401 239.736 C 87.381 240.610,90.235 241.486,90.744 241.681 C 91.252 241.876,91.734 242.036,91.814 242.036 C 91.894 242.036,91.922 234.402,91.875 225.072 L 91.790 208.107 90.476 207.675 C 89.295 207.287,87.034 206.615,83.251 205.529 C 82.529 205.321,80.164 204.591,77.997 203.905 C 73.645 202.530,68.031 200.828,59.704 198.362 C 51.764 196.011,50.844 195.499,51.402 193.739 C 52.036 191.744,53.960 191.898,61.905 194.583 C 63.711 195.193,66.593 196.082,68.309 196.557 C 70.025 197.033,72.685 197.832,74.220 198.332 C 76.785 199.168,78.312 199.629,80.952 200.363 C 81.494 200.513,84.139 201.309,86.830 202.131 C 89.521 202.952,91.771 203.576,91.830 203.517 C 91.890 203.458,91.979 194.899,92.028 184.498 L 92.118 165.587 88.506 164.428 C 80.957 162.006,73.250 159.599,69.294 158.430 C 67.036 157.762,64.909 157.072,64.567 156.896 C 64.225 156.721,62.008 156.020,59.641 155.339 C 57.274 154.659,54.450 153.785,53.366 153.398 C 51.544 152.747,41.556 149.754,41.206 149.754 C 41.120 149.754,41.051 178.114,41.051 212.777 L 41.051 275.801 45.238 277.132 C 53.302 279.695,59.960 281.750,62.890 282.581 C 64.516 283.041,67.102 283.844,68.637 284.364 C 70.172 284.884,72.315 285.557,73.399 285.860 C 74.483 286.162,77.882 287.193,80.952 288.151 C 84.023 289.108,87.644 290.219,88.998 290.619 C 91.561 291.376,97.705 293.274,105.583 295.743 C 108.112 296.535,111.511 297.570,113.136 298.042 C 114.762 298.514,117.348 299.324,118.883 299.842 C 120.419 300.361,123.300 301.245,125.287 301.808 C 127.274 302.371,130.895 303.469,133.333 304.248 C 138.442 305.880,143.644 307.481,150.411 309.502 C 153.030 310.284,156.576 311.385,158.292 311.948 C 160.008 312.511,163.407 313.579,165.846 314.321 C 177.022 317.722,183.142 319.579,187.849 320.996 C 190.649 321.838,193.801 322.828,194.855 323.196 C 195.908 323.564,196.832 323.803,196.908 323.727 C 196.984 323.651,197.008 278.454,196.963 223.289 L 196.880 122.989 195.932 124.795 M198.686 223.702 L 198.686 323.376 204.516 321.341 C 214.468 317.867,219.842 315.940,220.525 315.601 C 220.887 315.421,223.399 314.529,226.108 313.617 C 228.818 312.706,231.478 311.757,232.020 311.508 C 232.562 311.259,234.778 310.450,236.946 309.712 C 239.113 308.973,241.182 308.223,241.544 308.046 C 242.195 307.727,247.991 305.663,257.800 302.258 C 260.599 301.286,263.186 300.339,263.547 300.153 C 264.199 299.818,269.394 297.939,279.803 294.274 C 282.783 293.225,285.665 292.180,286.207 291.951 C 286.749 291.723,289.187 290.831,291.626 289.969 C 294.064 289.107,298.571 287.486,301.642 286.368 C 304.713 285.250,309.811 283.410,312.972 282.279 C 316.133 281.148,320.862 279.439,323.481 278.481 C 326.100 277.523,330.829 275.816,333.990 274.687 C 342.260 271.736,349.803 269.024,355.829 266.837 C 358.719 265.788,362.968 264.269,365.271 263.462 L 369.458 261.994 369.458 197.828 C 369.458 162.536,369.404 133.662,369.337 133.662 C 369.085 133.662,357.026 137.701,345.813 141.542 C 339.401 143.739,331.450 146.428,328.144 147.518 C 324.838 148.608,322.207 149.574,322.296 149.664 C 322.386 149.753,323.539 150.298,324.859 150.873 C 344.970 159.644,346.926 188.296,328.113 198.535 C 327.104 199.084,326.363 199.732,326.277 200.139 C 326.197 200.514,325.890 202.077,325.593 203.612 C 321.324 225.721,293.210 237.471,275.316 224.627 C 273.575 223.377,273.955 223.237,271.008 226.220 C 254.993 242.429,227.652 224.882,236.217 203.891 C 236.629 202.881,236.591 202.725,235.558 201.163 C 231.985 195.764,230.587 188.947,231.626 181.978 C 231.869 180.351,231.843 180.233,231.298 180.470 C 230.972 180.612,229.598 181.095,228.243 181.543 C 226.888 181.992,225.167 182.624,224.417 182.949 C 222.878 183.615,222.279 183.295,221.909 181.609 C 221.810 181.158,221.137 179.310,220.414 177.504 C 219.692 175.698,218.213 171.988,217.128 169.260 C 216.043 166.533,214.859 163.651,214.497 162.856 C 213.853 161.443,207.587 145.907,204.776 138.752 C 201.877 131.376,199.030 124.372,198.861 124.203 C 198.765 124.107,198.686 168.882,198.686 223.702 M96.303 185.932 L 96.388 204.985 99.179 205.890 C 100.714 206.388,103.079 207.124,104.433 207.525 C 106.778 208.220,114.512 210.594,116.256 211.154 C 116.708 211.299,117.742 211.606,118.555 211.835 C 119.368 212.064,121.317 212.673,122.887 213.187 C 136.104 217.515,150.014 201.686,147.653 185.002 L 147.367 182.976 141.910 181.146 C 138.909 180.139,134.532 178.736,132.184 178.028 C 128.003 176.767,117.694 173.554,112.479 171.886 C 111.034 171.424,108.448 170.623,106.732 170.107 C 105.016 169.590,103.021 168.953,102.299 168.692 C 101.576 168.431,99.913 167.916,98.602 167.548 L 96.218 166.880 96.303 185.932 M291.872 225.856 C 292.640 225.925,293.896 225.925,294.663 225.856 C 295.431 225.787,294.803 225.731,293.268 225.731 C 291.732 225.731,291.104 225.787,291.872 225.856 " stroke="none" fill="#f2c385" fill-rule="evenodd"></path><path id="path1" d="M211.002 8.448 C 210.640 8.537,210.197 8.722,210.016 8.859 C 209.836 8.996,208.875 9.369,207.882 9.688 C 206.888 10.007,205.891 10.414,205.665 10.593 C 205.439 10.772,205.255 10.808,205.255 10.673 C 205.255 10.539,205.033 10.613,204.762 10.837 C 204.491 11.062,204.267 11.117,204.264 10.960 C 204.261 10.802,204.151 10.833,204.018 11.029 C 203.885 11.225,201.782 12.031,199.343 12.820 C 196.905 13.609,194.863 14.364,194.806 14.498 C 194.750 14.632,194.491 14.660,194.232 14.561 C 193.972 14.461,193.760 14.539,193.760 14.733 C 193.760 14.927,193.539 15.001,193.268 14.897 C 192.996 14.793,192.775 14.887,192.775 15.107 C 192.775 15.326,192.554 15.420,192.282 15.316 C 192.011 15.212,191.790 15.286,191.790 15.481 C 191.790 15.675,191.568 15.749,191.297 15.645 C 191.026 15.541,190.805 15.570,190.805 15.709 C 190.805 15.849,189.733 16.306,188.424 16.727 C 187.114 17.147,185.673 17.643,185.222 17.829 C 184.770 18.016,184.290 18.145,184.154 18.115 C 184.019 18.086,183.908 18.219,183.908 18.410 C 183.908 18.601,183.744 18.656,183.543 18.532 C 183.342 18.408,183.066 18.488,182.929 18.709 C 182.792 18.931,182.292 19.134,181.817 19.162 C 181.342 19.189,180.953 19.340,180.953 19.496 C 180.952 19.653,180.657 19.704,180.295 19.609 C 179.934 19.515,179.705 19.546,179.787 19.678 C 179.869 19.811,178.576 20.348,176.914 20.872 C 175.252 21.396,173.783 21.976,173.650 22.160 C 173.518 22.345,173.407 22.367,173.404 22.209 C 173.401 22.052,173.201 22.087,172.958 22.289 C 172.716 22.490,172.427 22.564,172.317 22.454 C 172.207 22.344,171.866 22.504,171.559 22.811 C 171.253 23.117,170.729 23.296,170.394 23.209 C 170.060 23.122,169.787 23.168,169.787 23.312 C 169.787 23.456,168.050 24.123,165.928 24.795 C 163.805 25.466,161.908 26.146,161.710 26.305 C 161.513 26.465,161.254 26.498,161.136 26.379 C 161.017 26.260,160.920 26.351,160.920 26.581 C 160.920 26.811,160.707 26.918,160.448 26.819 C 160.189 26.719,159.930 26.755,159.873 26.899 C 159.817 27.042,158.071 27.719,155.993 28.402 C 153.916 29.085,152.032 29.791,151.806 29.969 C 151.580 30.148,151.396 30.184,151.396 30.049 C 151.396 29.915,151.174 29.989,150.903 30.213 C 150.632 30.438,150.411 30.527,150.411 30.410 C 150.411 30.294,150.078 30.405,149.672 30.658 C 149.265 30.910,147.159 31.674,144.992 32.355 C 142.824 33.036,141.004 33.711,140.948 33.855 C 140.891 34.000,140.632 34.036,140.373 33.937 C 140.114 33.837,139.901 33.915,139.901 34.109 C 139.901 34.303,139.680 34.377,139.409 34.273 C 139.138 34.169,138.916 34.263,138.916 34.483 C 138.916 34.702,138.695 34.796,138.424 34.692 C 138.153 34.588,137.931 34.662,137.931 34.857 C 137.931 35.051,137.719 35.128,137.460 35.029 C 137.200 34.929,136.942 34.965,136.885 35.109 C 136.828 35.252,135.082 35.929,133.005 36.612 C 130.928 37.296,129.067 37.981,128.870 38.136 C 128.672 38.291,128.414 38.321,128.295 38.202 C 128.176 38.083,128.079 38.168,128.079 38.391 C 128.079 38.647,127.837 38.719,127.422 38.588 C 127.058 38.472,126.765 38.529,126.765 38.715 C 126.765 38.900,125.064 39.591,122.985 40.252 C 120.906 40.912,119.128 41.578,119.034 41.730 C 118.940 41.883,118.645 41.924,118.380 41.822 C 118.115 41.721,117.898 41.810,117.898 42.020 C 117.898 42.231,117.750 42.312,117.570 42.200 C 117.389 42.089,117.241 42.171,117.241 42.383 C 117.241 42.608,116.966 42.698,116.585 42.598 C 116.223 42.503,115.928 42.576,115.928 42.759 C 115.928 42.942,115.706 43.007,115.435 42.903 C 115.164 42.799,114.943 42.829,114.943 42.970 C 114.943 43.111,113.612 43.651,111.987 44.171 C 110.361 44.690,109.031 45.231,109.031 45.372 C 109.031 45.513,108.824 45.549,108.572 45.452 C 108.319 45.355,108.013 45.436,107.892 45.632 C 107.771 45.827,107.535 45.903,107.366 45.799 C 107.198 45.695,107.061 45.782,107.061 45.993 C 107.061 46.203,106.849 46.294,106.589 46.195 C 106.330 46.095,106.063 46.178,105.996 46.379 C 105.930 46.579,105.409 46.743,104.840 46.743 C 104.271 46.743,103.865 46.840,103.938 46.958 C 104.011 47.076,103.007 47.514,101.707 47.931 C 100.407 48.348,98.974 48.842,98.522 49.030 C 98.071 49.217,97.590 49.401,97.455 49.439 C 97.319 49.477,97.135 49.544,97.044 49.589 C 96.954 49.635,96.769 49.692,96.634 49.718 C 96.498 49.743,96.203 49.881,95.977 50.024 C 95.751 50.168,95.419 50.194,95.238 50.082 C 95.057 49.970,94.910 50.044,94.910 50.246 C 94.910 50.448,94.775 50.530,94.609 50.428 C 94.444 50.326,94.259 50.356,94.199 50.495 C 94.138 50.635,92.278 51.333,90.066 52.048 C 87.853 52.763,86.043 53.458,86.043 53.593 C 86.043 53.728,85.821 53.753,85.550 53.649 C 85.279 53.545,85.057 53.639,85.057 53.859 C 85.057 54.078,84.836 54.172,84.565 54.068 C 84.294 53.964,84.072 54.038,84.072 54.233 C 84.072 54.427,83.860 54.504,83.601 54.405 C 83.342 54.305,83.083 54.341,83.026 54.485 C 82.969 54.628,81.223 55.307,79.146 55.993 C 77.069 56.680,75.259 57.404,75.123 57.602 C 74.953 57.852,74.776 57.811,74.553 57.471 C 74.280 57.055,74.229 57.073,74.225 57.589 C 74.222 57.982,74.053 58.134,73.749 58.017 C 73.489 57.918,73.223 58.001,73.156 58.201 C 73.089 58.402,72.569 58.566,71.999 58.566 C 71.430 58.566,71.026 58.664,71.100 58.785 C 71.174 58.905,69.914 59.407,68.300 59.901 C 66.686 60.395,65.284 60.931,65.184 61.091 C 65.085 61.252,64.787 61.300,64.522 61.198 C 64.256 61.097,64.039 61.172,64.039 61.367 C 64.039 61.561,63.818 61.635,63.547 61.531 C 63.276 61.427,63.054 61.501,63.054 61.695 C 63.054 61.889,62.833 61.963,62.562 61.859 C 62.290 61.755,62.069 61.850,62.069 62.069 C 62.069 62.288,61.848 62.383,61.576 62.279 C 61.305 62.175,61.084 62.205,61.084 62.346 C 61.084 62.487,59.754 63.027,58.128 63.547 C 56.502 64.066,55.172 64.607,55.172 64.748 C 55.172 64.889,54.951 64.919,54.680 64.815 C 54.409 64.711,54.187 64.785,54.187 64.979 C 54.187 65.173,53.966 65.247,53.695 65.143 C 53.423 65.039,53.202 65.134,53.202 65.353 C 53.202 65.572,52.981 65.667,52.709 65.563 C 52.438 65.459,52.217 65.533,52.217 65.727 C 52.217 65.921,51.995 65.995,51.724 65.891 C 51.453 65.787,51.232 65.815,51.232 65.953 C 51.232 66.092,49.458 66.782,47.291 67.488 C 45.123 68.193,43.350 68.884,43.350 69.022 C 43.350 69.160,43.128 69.188,42.857 69.084 C 42.586 68.980,42.365 69.054,42.365 69.248 C 42.365 69.443,42.143 69.517,41.872 69.413 C 41.601 69.309,41.379 69.387,41.379 69.587 C 41.379 69.787,40.899 69.952,40.312 69.953 C 39.089 69.955,38.962 70.131,36.374 75.368 C 35.482 77.174,34.581 78.760,34.371 78.894 C 34.162 79.027,34.080 79.138,34.189 79.141 C 34.377 79.146,33.652 80.609,28.173 91.297 C 26.923 93.736,25.231 97.061,24.413 98.686 C 23.596 100.312,22.792 101.692,22.627 101.752 C 22.462 101.813,22.411 101.997,22.513 102.163 C 22.615 102.328,22.542 102.463,22.351 102.463 C 22.160 102.463,22.026 102.574,22.054 102.709 C 22.133 103.097,19.009 109.511,18.681 109.634 C 18.519 109.695,18.470 109.879,18.572 110.044 C 18.674 110.210,18.601 110.345,18.410 110.345 C 18.219 110.345,18.089 110.456,18.122 110.591 C 18.185 110.850,16.868 113.506,12.627 121.675 C 11.221 124.384,9.171 128.363,8.073 130.516 C 5.433 135.691,5.201 136.106,4.875 136.234 C 4.723 136.294,4.598 136.751,4.598 137.248 C 4.598 138.134,4.702 138.183,9.606 139.569 C 12.360 140.348,14.661 141.103,14.717 141.246 C 14.774 141.389,15.033 141.425,15.292 141.326 C 15.551 141.226,15.764 141.324,15.764 141.544 C 15.764 141.763,15.980 141.859,16.246 141.757 C 16.511 141.655,16.799 141.688,16.886 141.829 C 16.973 141.970,18.825 142.578,21.002 143.181 C 23.178 143.784,24.959 144.387,24.959 144.522 C 24.959 144.656,25.255 144.689,25.616 144.594 C 25.977 144.500,26.273 144.583,26.273 144.779 C 26.273 144.975,26.494 145.050,26.765 144.946 C 27.036 144.842,27.258 144.937,27.258 145.156 C 27.258 145.375,27.461 145.477,27.710 145.381 C 27.959 145.285,28.292 145.328,28.449 145.476 C 28.607 145.624,30.952 146.370,33.662 147.133 C 36.371 147.897,38.678 148.663,38.789 148.837 C 38.899 149.011,39.121 149.140,39.281 149.125 C 39.450 149.109,39.604 176.031,39.646 213.054 C 39.711 270.340,39.772 277.023,40.225 277.118 C 40.503 277.177,40.633 277.384,40.513 277.577 C 40.368 277.811,40.586 277.856,41.166 277.710 C 41.704 277.575,42.036 277.627,42.036 277.846 C 42.036 278.040,42.200 278.098,42.401 277.974 C 42.602 277.850,42.861 277.888,42.976 278.058 C 43.091 278.228,45.476 279.014,48.276 279.805 C 51.076 280.596,53.413 281.354,53.469 281.490 C 53.526 281.625,53.770 281.661,54.011 281.568 C 54.252 281.476,54.543 281.552,54.657 281.737 C 54.771 281.922,55.082 281.990,55.347 281.888 C 55.612 281.786,55.829 281.883,55.829 282.102 C 55.829 282.321,56.033 282.422,56.282 282.327 C 56.531 282.231,56.863 282.268,57.021 282.408 C 57.178 282.548,59.302 283.231,61.741 283.927 C 64.179 284.623,66.260 285.314,66.365 285.464 C 66.469 285.614,66.802 285.642,67.103 285.526 C 67.423 285.404,67.652 285.476,67.652 285.699 C 67.652 285.909,67.816 285.980,68.017 285.856 C 68.218 285.732,68.478 285.786,68.596 285.976 C 68.713 286.166,69.251 286.370,69.791 286.429 C 70.330 286.487,70.846 286.613,70.936 286.708 C 71.026 286.803,72.874 287.385,75.041 288.002 C 77.209 288.619,79.068 289.248,79.172 289.401 C 79.277 289.553,79.610 289.583,79.911 289.467 C 80.234 289.343,80.460 289.417,80.460 289.647 C 80.460 289.862,80.644 289.971,80.870 289.890 C 81.096 289.808,81.539 289.966,81.856 290.242 C 82.331 290.656,82.431 290.662,82.435 290.281 C 82.439 289.960,82.514 289.934,82.682 290.198 C 82.814 290.406,84.401 290.976,86.207 291.466 C 88.013 291.955,89.633 292.441,89.805 292.545 C 89.978 292.649,90.482 292.773,90.925 292.820 C 91.368 292.867,91.829 293.066,91.950 293.262 C 92.072 293.458,92.418 293.524,92.719 293.408 C 93.046 293.282,93.268 293.359,93.268 293.596 C 93.268 293.816,93.489 293.910,93.760 293.806 C 94.031 293.702,94.253 293.777,94.253 293.973 C 94.253 294.169,94.541 294.254,94.894 294.162 C 95.247 294.070,95.579 294.103,95.633 294.236 C 95.687 294.369,97.726 295.037,100.164 295.721 C 102.603 296.405,104.694 297.114,104.811 297.298 C 104.928 297.482,105.261 297.542,105.550 297.431 C 105.839 297.320,106.076 297.388,106.076 297.582 C 106.076 297.777,106.288 297.854,106.547 297.755 C 106.806 297.655,107.065 297.685,107.122 297.822 C 107.226 298.072,116.730 300.823,117.488 300.822 C 117.713 300.821,117.898 300.964,117.898 301.139 C 117.898 301.314,118.120 301.372,118.391 301.268 C 118.662 301.164,118.883 301.258,118.883 301.478 C 118.883 301.697,119.100 301.793,119.366 301.692 C 119.631 301.590,119.941 301.658,120.056 301.843 C 120.170 302.028,120.470 302.100,120.723 302.003 C 120.976 301.906,121.182 301.986,121.182 302.180 C 121.182 302.374,121.394 302.452,121.654 302.352 C 121.913 302.253,122.172 302.287,122.228 302.428 C 122.285 302.568,124.142 303.174,126.355 303.774 C 128.567 304.373,130.378 304.998,130.378 305.163 C 130.378 305.328,130.673 305.369,131.034 305.255 C 131.439 305.126,131.691 305.196,131.691 305.435 C 131.691 305.662,131.964 305.752,132.348 305.652 C 132.709 305.558,133.005 305.630,133.005 305.813 C 133.005 305.996,133.227 306.061,133.498 305.957 C 133.768 305.853,133.990 305.893,133.990 306.047 C 133.990 306.201,135.837 306.811,138.095 307.402 C 140.353 307.994,142.200 308.618,142.200 308.790 C 142.200 308.961,142.422 309.016,142.693 308.912 C 142.964 308.808,143.186 308.882,143.186 309.077 C 143.186 309.271,143.426 309.338,143.720 309.225 C 144.038 309.103,144.433 309.255,144.695 309.600 C 145.050 310.068,145.138 310.085,145.151 309.688 C 145.160 309.375,145.254 309.324,145.407 309.549 C 145.540 309.743,147.814 310.482,150.460 311.191 C 153.107 311.900,155.194 312.606,155.099 312.761 C 155.004 312.916,155.240 312.943,155.624 312.821 C 156.065 312.681,156.322 312.741,156.322 312.985 C 156.322 313.197,156.544 313.286,156.814 313.182 C 157.085 313.078,157.307 313.152,157.307 313.346 C 157.307 313.540,157.511 313.621,157.760 313.525 C 158.009 313.430,158.341 313.475,158.499 313.625 C 158.656 313.775,160.780 314.444,163.218 315.111 C 165.782 315.812,167.772 316.534,167.937 316.822 C 168.174 317.237,168.270 317.245,168.511 316.870 C 168.757 316.490,168.846 316.490,169.093 316.873 C 169.253 317.122,169.549 317.224,169.750 317.100 C 169.951 316.976,170.115 317.041,170.115 317.244 C 170.115 317.465,170.380 317.530,170.772 317.406 C 171.174 317.278,171.429 317.347,171.429 317.583 C 171.429 317.795,171.641 317.887,171.900 317.788 C 172.159 317.688,172.418 317.722,172.475 317.863 C 172.532 318.003,174.388 318.609,176.601 319.209 C 178.814 319.808,180.624 320.439,180.624 320.611 C 180.624 320.783,180.841 320.841,181.106 320.739 C 181.371 320.637,181.672 320.689,181.773 320.854 C 181.875 321.019,182.176 321.070,182.441 320.969 C 182.706 320.867,182.923 320.957,182.923 321.169 C 182.923 321.405,183.177 321.474,183.580 321.346 C 183.982 321.219,184.236 321.287,184.236 321.524 C 184.236 321.736,184.449 321.828,184.708 321.728 C 184.967 321.629,185.226 321.656,185.283 321.789 C 185.339 321.922,187.196 322.529,189.409 323.137 C 191.622 323.746,193.432 324.378,193.432 324.542 C 193.432 324.705,193.727 324.745,194.089 324.631 C 194.480 324.506,194.745 324.572,194.745 324.792 C 194.745 324.995,194.900 325.067,195.088 324.950 C 195.277 324.834,195.646 324.917,195.909 325.135 C 196.172 325.353,196.388 325.449,196.388 325.347 C 196.388 325.245,196.786 325.369,197.273 325.622 C 197.846 325.919,198.292 325.971,198.535 325.769 C 198.742 325.598,199.008 325.554,199.127 325.673 C 199.246 325.792,199.343 325.708,199.343 325.487 C 199.343 325.266,199.475 325.166,199.637 325.266 C 199.799 325.366,200.022 325.212,200.133 324.923 C 200.247 324.624,200.545 324.479,200.824 324.586 C 201.093 324.690,201.314 324.660,201.314 324.520 C 201.314 324.380,203.124 323.698,205.337 323.004 C 207.549 322.311,209.609 321.529,209.914 321.266 C 210.218 321.004,210.625 320.887,210.817 321.005 C 211.009 321.124,211.166 321.049,211.166 320.838 C 211.166 320.627,211.388 320.540,211.658 320.644 C 211.929 320.748,212.151 320.711,212.151 320.563 C 212.151 320.414,213.777 319.799,215.764 319.197 C 217.750 318.595,219.376 317.987,219.376 317.846 C 219.376 317.706,219.598 317.675,219.869 317.779 C 220.140 317.883,220.361 317.810,220.361 317.615 C 220.361 317.421,220.583 317.347,220.854 317.451 C 221.125 317.555,221.346 317.461,221.346 317.241 C 221.346 317.022,221.568 316.928,221.839 317.032 C 222.110 317.136,222.332 317.062,222.332 316.868 C 222.332 316.673,222.553 316.599,222.824 316.703 C 223.095 316.807,223.317 316.779,223.317 316.640 C 223.317 316.501,224.869 315.878,226.765 315.255 C 228.662 314.633,230.213 314.017,230.213 313.886 C 230.213 313.756,230.435 313.735,230.706 313.839 C 230.977 313.943,231.199 313.869,231.199 313.674 C 231.199 313.480,231.420 313.406,231.691 313.510 C 231.962 313.614,232.184 313.520,232.184 313.300 C 232.184 313.081,232.405 312.987,232.677 313.091 C 232.947 313.195,233.169 313.121,233.169 312.927 C 233.169 312.732,233.391 312.658,233.662 312.762 C 233.933 312.866,234.154 312.837,234.154 312.698 C 234.154 312.559,235.743 311.935,237.685 311.313 C 239.626 310.690,241.262 310.078,241.318 309.953 C 241.375 309.827,241.634 309.806,241.893 309.906 C 242.152 310.005,242.365 309.928,242.365 309.733 C 242.365 309.539,242.586 309.465,242.857 309.569 C 243.128 309.673,243.350 309.599,243.350 309.405 C 243.350 309.211,243.571 309.137,243.842 309.241 C 244.114 309.345,244.335 309.251,244.335 309.031 C 244.335 308.806,244.557 308.718,244.845 308.828 C 245.125 308.936,245.277 308.898,245.182 308.744 C 245.087 308.591,246.150 308.126,247.544 307.712 C 248.939 307.298,250.598 306.734,251.230 306.457 C 251.863 306.181,252.566 305.988,252.791 306.030 C 253.017 306.071,253.202 305.955,253.202 305.772 C 253.202 305.589,253.424 305.524,253.695 305.628 C 253.966 305.732,254.187 305.645,254.187 305.434 C 254.187 305.224,254.351 305.153,254.552 305.277 C 254.753 305.401,255.012 305.359,255.127 305.183 C 255.410 304.751,262.414 302.435,262.771 302.655 C 262.927 302.751,263.054 302.604,263.054 302.329 C 263.054 302.018,263.241 301.899,263.547 302.016 C 263.818 302.120,264.039 302.046,264.039 301.852 C 264.039 301.657,264.261 301.584,264.532 301.687 C 264.803 301.792,265.025 301.697,265.025 301.478 C 265.025 301.259,265.237 301.161,265.496 301.260 C 265.755 301.360,266.014 301.324,266.071 301.180 C 266.128 301.037,267.874 300.360,269.951 299.677 C 272.028 298.993,273.889 298.308,274.086 298.153 C 274.283 297.998,274.542 297.968,274.661 298.087 C 274.780 298.206,274.877 298.121,274.877 297.898 C 274.877 297.642,275.119 297.570,275.534 297.701 C 275.902 297.818,276.190 297.760,276.190 297.569 C 276.190 297.382,276.412 297.314,276.683 297.418 C 276.954 297.522,277.176 297.478,277.176 297.319 C 277.176 297.161,278.912 296.443,281.034 295.724 C 283.157 295.005,284.940 294.315,284.997 294.189 C 285.053 294.064,285.312 294.043,285.571 294.142 C 285.831 294.242,286.043 294.151,286.043 293.940 C 286.043 293.730,286.190 293.649,286.371 293.760 C 286.552 293.872,286.700 293.789,286.700 293.577 C 286.700 293.356,286.973 293.263,287.341 293.359 C 287.693 293.451,288.026 293.416,288.079 293.282 C 288.133 293.147,289.877 292.478,291.954 291.795 C 294.031 291.112,295.892 290.426,296.089 290.271 C 296.287 290.116,296.545 290.087,296.664 290.205 C 296.783 290.324,296.880 290.233,296.880 290.003 C 296.880 289.766,297.094 289.667,297.373 289.774 C 297.644 289.878,297.865 289.840,297.865 289.689 C 297.865 289.538,299.639 288.852,301.806 288.164 C 303.974 287.476,305.747 286.782,305.747 286.622 C 305.747 286.463,305.883 286.416,306.048 286.518 C 306.213 286.621,306.768 286.532,307.280 286.321 C 307.791 286.110,308.395 285.968,308.621 286.004 C 308.846 286.041,309.031 285.909,309.031 285.709 C 309.031 285.510,309.166 285.431,309.332 285.533 C 309.497 285.635,309.681 285.604,309.742 285.464 C 309.803 285.323,311.589 284.641,313.711 283.948 C 315.833 283.254,317.570 282.560,317.570 282.405 C 317.570 282.249,317.791 282.207,318.062 282.311 C 318.333 282.415,318.555 282.327,318.555 282.115 C 318.555 281.879,318.810 281.810,319.212 281.938 C 319.580 282.054,319.869 281.997,319.869 281.806 C 319.869 281.619,320.090 281.551,320.361 281.655 C 320.632 281.759,320.854 281.692,320.854 281.507 C 320.854 281.322,322.627 280.617,324.795 279.940 C 326.962 279.264,328.736 278.591,328.736 278.446 C 328.736 278.300,328.957 278.267,329.228 278.371 C 329.499 278.475,329.721 278.380,329.721 278.161 C 329.721 277.941,329.942 277.847,330.213 277.951 C 330.484 278.055,330.706 277.981,330.706 277.787 C 330.706 277.593,330.918 277.515,331.177 277.615 C 331.437 277.714,331.695 277.678,331.752 277.535 C 331.809 277.391,333.555 276.712,335.632 276.026 C 337.709 275.340,339.503 274.634,339.618 274.457 C 339.734 274.281,339.992 274.237,340.193 274.362 C 340.394 274.486,340.558 274.415,340.558 274.204 C 340.558 273.994,340.780 273.906,341.051 274.010 C 341.322 274.114,341.544 274.040,341.544 273.846 C 341.544 273.652,341.765 273.578,342.036 273.682 C 342.307 273.786,342.529 273.759,342.529 273.623 C 342.529 273.487,343.933 272.946,345.649 272.422 C 347.365 271.898,348.769 271.386,348.769 271.285 C 348.769 271.183,349.158 271.078,349.633 271.050 C 350.108 271.023,350.601 270.830,350.729 270.623 C 350.857 270.416,351.281 270.222,351.672 270.193 C 352.062 270.163,352.381 270.007,352.381 269.846 C 352.381 269.684,352.603 269.637,352.874 269.741 C 353.144 269.845,353.366 269.820,353.366 269.686 C 353.366 269.552,354.992 268.939,356.979 268.324 C 358.966 267.708,360.591 267.089,360.591 266.946 C 360.591 266.804,360.813 266.772,361.084 266.876 C 361.355 266.980,361.576 266.886,361.576 266.667 C 361.576 266.447,361.798 266.353,362.069 266.457 C 362.340 266.561,362.562 266.487,362.562 266.293 C 362.562 266.099,362.783 266.025,363.054 266.129 C 363.325 266.233,363.547 266.201,363.547 266.060 C 363.547 265.918,364.397 265.539,365.435 265.218 C 366.474 264.897,368.173 264.258,369.212 263.799 L 371.100 262.964 371.100 197.846 L 371.100 132.728 374.405 131.701 C 376.222 131.136,378.107 130.510,378.592 130.309 C 379.077 130.108,379.659 129.974,379.885 130.011 C 380.111 130.048,380.296 129.908,380.296 129.700 C 380.296 129.492,380.517 129.407,380.788 129.511 C 381.059 129.615,381.281 129.540,381.281 129.344 C 381.281 129.148,381.577 129.065,381.938 129.159 C 382.300 129.254,382.535 129.233,382.461 129.114 C 382.387 128.994,384.234 128.320,386.566 127.615 C 388.897 126.910,390.805 126.213,390.805 126.067 C 390.805 125.920,391.026 125.886,391.297 125.990 C 391.568 126.094,391.790 126.020,391.790 125.825 C 391.790 125.631,392.011 125.557,392.282 125.661 C 392.554 125.765,392.775 125.671,392.775 125.452 C 392.775 125.232,392.996 125.138,393.268 125.242 C 393.539 125.346,393.760 125.288,393.760 125.113 C 393.760 124.938,394.019 124.792,394.335 124.790 C 395.838 124.777,395.886 124.346,394.736 121.131 C 394.133 119.443,393.499 117.968,393.329 117.853 C 393.159 117.738,393.121 117.479,393.245 117.278 C 393.369 117.077,393.330 116.913,393.159 116.913 C 392.987 116.913,392.210 115.177,391.432 113.054 C 390.654 110.932,389.840 108.900,389.624 108.539 C 389.408 108.177,388.536 106.034,387.687 103.777 C 386.837 101.519,386.027 99.524,385.886 99.343 C 385.746 99.163,384.944 97.167,384.106 94.910 C 383.267 92.652,382.436 90.548,382.259 90.234 C 382.082 89.921,381.938 89.453,381.938 89.194 C 381.938 88.936,381.815 88.675,381.666 88.615 C 381.517 88.555,380.711 86.732,379.875 84.565 C 379.039 82.397,377.462 78.419,376.370 75.725 C 375.278 73.031,374.384 70.641,374.384 70.416 C 374.384 70.190,374.254 69.956,374.096 69.896 C 373.937 69.836,373.283 68.383,372.642 66.667 C 371.186 62.766,370.249 60.509,369.629 59.406 C 369.364 58.934,369.242 58.454,369.357 58.338 C 369.473 58.223,369.400 58.128,369.195 58.128 C 368.990 58.128,368.907 57.906,369.011 57.635 C 369.115 57.365,369.052 57.143,368.872 57.143 C 368.692 57.143,368.447 56.757,368.329 56.285 C 368.036 55.117,366.434 53.161,365.928 53.353 C 365.702 53.439,365.517 53.400,365.517 53.267 C 365.517 53.133,363.818 52.590,361.741 52.060 C 359.663 51.529,357.964 50.983,357.964 50.845 C 357.964 50.708,357.742 50.680,357.471 50.784 C 357.200 50.888,356.979 50.800,356.979 50.588 C 356.979 50.351,356.724 50.283,356.322 50.411 C 355.928 50.535,355.665 50.470,355.665 50.246 C 355.665 50.023,355.402 49.957,355.008 50.082 C 354.606 50.210,354.351 50.141,354.351 49.905 C 354.351 49.693,354.134 49.602,353.869 49.704 C 353.604 49.806,353.294 49.738,353.179 49.553 C 353.065 49.368,352.765 49.296,352.512 49.393 C 352.259 49.490,352.053 49.460,352.053 49.326 C 352.053 49.192,350.362 48.651,348.295 48.124 C 346.229 47.596,344.622 47.029,344.724 46.864 C 344.829 46.694,344.607 46.660,344.212 46.785 C 343.826 46.907,343.514 46.863,343.514 46.687 C 343.514 46.511,343.218 46.444,342.857 46.539 C 342.473 46.639,342.200 46.549,342.200 46.322 C 342.200 46.082,341.948 46.013,341.544 46.141 C 341.141 46.269,340.887 46.200,340.887 45.964 C 340.887 45.752,340.683 45.656,340.434 45.752 C 340.185 45.848,339.853 45.801,339.695 45.650 C 339.538 45.498,337.340 44.828,334.811 44.161 C 332.282 43.494,330.128 42.812,330.023 42.645 C 329.918 42.479,329.586 42.437,329.284 42.553 C 328.957 42.678,328.736 42.602,328.736 42.365 C 328.736 42.145,328.519 42.049,328.254 42.151 C 327.988 42.253,327.678 42.184,327.564 41.999 C 327.449 41.814,327.154 41.740,326.907 41.835 C 326.660 41.930,326.364 41.856,326.250 41.671 C 326.136 41.486,325.835 41.414,325.583 41.511 C 325.330 41.608,325.123 41.575,325.123 41.437 C 325.123 41.300,323.424 40.753,321.346 40.223 C 319.269 39.692,317.570 39.149,317.570 39.016 C 317.570 38.882,317.348 38.858,317.077 38.962 C 316.806 39.066,316.585 38.977,316.585 38.765 C 316.585 38.529,316.330 38.460,315.928 38.588 C 315.534 38.713,315.271 38.647,315.271 38.424 C 315.271 38.200,315.008 38.135,314.614 38.259 C 314.212 38.387,313.957 38.318,313.957 38.082 C 313.957 37.870,313.745 37.778,313.486 37.877 C 313.227 37.977,312.968 37.947,312.911 37.811 C 312.854 37.676,310.924 37.071,308.621 36.468 C 306.318 35.865,304.433 35.236,304.433 35.069 C 304.433 34.903,304.138 34.861,303.777 34.975 C 303.383 35.100,303.120 35.034,303.120 34.811 C 303.120 34.588,302.856 34.522,302.463 34.647 C 302.061 34.775,301.806 34.706,301.806 34.470 C 301.806 34.258,301.603 34.162,301.354 34.258 C 301.105 34.353,300.772 34.310,300.615 34.162 C 300.457 34.014,297.964 33.265,295.074 32.498 C 292.184 31.730,289.734 30.971,289.629 30.811 C 289.524 30.651,289.192 30.614,288.890 30.730 C 288.563 30.855,288.342 30.779,288.342 30.542 C 288.342 30.323,288.125 30.226,287.859 30.328 C 287.594 30.430,287.284 30.362,287.169 30.177 C 287.055 29.992,286.764 29.916,286.523 30.008 C 286.282 30.101,286.039 30.065,285.982 29.930 C 285.925 29.794,283.994 29.189,281.691 28.586 C 279.388 27.983,277.504 27.378,277.504 27.240 C 277.504 27.103,277.209 27.068,276.847 27.163 C 276.464 27.263,276.190 27.173,276.190 26.946 C 276.190 26.706,275.938 26.637,275.534 26.765 C 275.131 26.893,274.877 26.824,274.877 26.588 C 274.877 26.376,274.660 26.286,274.395 26.387 C 274.130 26.489,273.819 26.421,273.705 26.236 C 273.590 26.051,273.295 25.977,273.048 26.072 C 272.801 26.166,272.524 26.123,272.433 25.975 C 272.341 25.827,270.353 25.209,268.015 24.602 C 265.676 23.995,263.844 23.368,263.942 23.208 C 264.041 23.049,263.808 23.018,263.424 23.140 C 262.992 23.277,262.726 23.219,262.726 22.989 C 262.726 22.765,262.462 22.699,262.069 22.824 C 261.678 22.949,261.412 22.883,261.412 22.663 C 261.412 22.459,261.258 22.388,261.069 22.505 C 260.881 22.621,260.518 22.543,260.263 22.332 C 260.008 22.120,259.645 22.042,259.456 22.159 C 259.268 22.275,259.113 22.248,259.113 22.098 C 259.113 21.948,257.423 21.394,255.356 20.866 C 253.290 20.338,251.683 19.771,251.785 19.606 C 251.889 19.438,251.675 19.399,251.300 19.518 C 250.932 19.635,250.539 19.584,250.428 19.404 C 250.316 19.224,250.008 19.160,249.743 19.261 C 249.478 19.363,249.261 19.273,249.261 19.061 C 249.261 18.824,249.007 18.756,248.604 18.883 C 248.202 19.011,247.947 18.942,247.947 18.706 C 247.947 18.494,247.744 18.399,247.495 18.494 C 247.246 18.590,246.913 18.545,246.756 18.395 C 246.598 18.245,244.622 17.639,242.365 17.049 C 240.107 16.459,238.213 15.863,238.156 15.724 C 238.099 15.586,237.841 15.553,237.581 15.653 C 237.322 15.752,237.110 15.684,237.110 15.501 C 237.110 15.318,236.814 15.246,236.453 15.340 C 236.069 15.440,235.796 15.350,235.796 15.123 C 235.796 14.884,235.544 14.814,235.140 14.943 C 234.737 15.070,234.483 15.002,234.483 14.765 C 234.483 14.553,234.266 14.463,234.001 14.565 C 233.736 14.666,233.425 14.598,233.311 14.413 C 233.196 14.228,232.906 14.152,232.665 14.245 C 232.424 14.337,232.180 14.297,232.123 14.155 C 232.066 14.013,230.173 13.416,227.915 12.829 C 225.658 12.242,223.725 11.623,223.620 11.453 C 223.515 11.283,223.182 11.238,222.880 11.354 C 222.560 11.477,222.332 11.404,222.332 11.179 C 222.332 10.943,222.077 10.874,221.675 11.002 C 221.273 11.129,221.018 11.061,221.018 10.824 C 221.018 10.612,220.801 10.522,220.536 10.624 C 220.271 10.726,219.960 10.657,219.846 10.472 C 219.732 10.287,219.431 10.215,219.179 10.312 C 218.926 10.409,218.719 10.345,218.719 10.170 C 218.719 9.995,218.502 9.852,218.237 9.852 C 217.971 9.852,216.622 9.483,215.239 9.031 C 212.727 8.211,212.238 8.144,211.002 8.448 M213.361 9.890 C 213.870 10.092,217.020 11.045,220.361 12.010 C 223.703 12.974,229.466 14.649,233.169 15.733 C 246.784 19.716,250.553 20.822,273.563 27.581 C 277.085 28.615,282.110 30.083,284.729 30.843 C 289.829 32.321,297.337 34.529,306.076 37.120 C 309.056 38.004,313.563 39.328,316.092 40.063 C 318.621 40.799,323.719 42.287,327.422 43.372 C 342.995 47.932,347.921 49.366,353.366 50.924 C 356.527 51.829,359.704 52.780,360.427 53.037 C 361.149 53.294,362.788 53.805,364.068 54.172 C 366.408 54.844,367.898 56.228,366.747 56.662 C 366.522 56.747,364.491 57.469,362.233 58.267 C 359.975 59.065,355.394 60.699,352.053 61.899 C 348.711 63.098,343.539 64.953,340.558 66.021 C 337.578 67.089,332.627 68.864,329.557 69.966 C 326.486 71.067,321.535 72.838,318.555 73.901 C 315.575 74.964,310.624 76.738,307.553 77.844 C 298.209 81.209,292.376 83.306,286.700 85.343 C 283.719 86.413,278.768 88.196,275.698 89.307 C 268.131 92.043,261.419 94.455,254.351 96.979 C 251.100 98.140,245.706 100.078,242.365 101.286 C 239.023 102.494,234.072 104.271,231.363 105.236 C 228.654 106.201,223.703 107.978,220.361 109.186 C 217.020 110.394,212.291 112.099,209.852 112.975 C 207.414 113.851,203.897 115.116,202.037 115.785 L 198.656 117.003 193.991 115.596 C 191.426 114.822,187.184 113.566,184.565 112.805 C 181.946 112.044,176.404 110.423,172.250 109.202 C 168.095 107.982,162.036 106.206,158.785 105.255 C 152.599 103.445,144.865 101.173,131.363 97.198 C 126.938 95.895,120.361 93.968,116.749 92.915 C 113.136 91.862,107.447 90.197,104.105 89.216 C 98.598 87.599,94.635 86.438,77.504 81.424 C 74.524 80.551,68.982 78.927,65.189 77.814 C 61.396 76.701,55.854 75.085,52.874 74.222 C 49.893 73.360,46.131 72.249,44.514 71.755 L 41.573 70.855 45.171 69.560 C 47.149 68.847,50.985 67.474,53.695 66.509 C 56.404 65.544,61.133 63.846,64.204 62.737 C 69.677 60.760,73.515 59.381,85.714 55.009 C 89.056 53.812,94.080 52.010,96.880 51.005 C 99.680 50.000,103.818 48.526,106.076 47.730 C 108.333 46.934,111.511 45.779,113.136 45.164 C 114.762 44.548,118.235 43.290,120.854 42.368 C 126.583 40.349,133.509 37.870,141.051 35.139 C 144.122 34.026,148.851 32.326,151.560 31.359 C 154.269 30.393,159.220 28.614,162.562 27.406 C 165.903 26.198,170.632 24.496,173.071 23.624 C 178.141 21.811,187.176 18.566,195.074 15.724 C 198.054 14.651,202.578 13.040,205.127 12.144 C 207.677 11.248,210.263 10.298,210.875 10.032 C 212.240 9.439,212.226 9.440,213.361 9.890 M368.392 59.195 C 368.760 60.144,369.585 62.176,370.227 63.711 C 371.343 66.384,372.690 69.738,375.371 76.519 C 376.049 78.235,377.962 82.964,379.620 87.028 C 381.279 91.092,382.981 95.304,383.402 96.388 C 383.823 97.471,385.275 101.092,386.629 104.433 C 392.967 120.079,394.096 122.966,393.993 123.274 C 393.933 123.456,392.193 124.157,390.127 124.831 C 386.718 125.944,374.322 130.150,371.921 131.009 C 369.800 131.768,362.794 134.129,357.635 135.824 C 354.655 136.803,351.995 137.698,351.724 137.811 C 350.762 138.215,329.134 145.585,323.317 147.491 C 320.066 148.557,317.110 149.575,316.749 149.754 C 316.388 149.933,314.023 150.744,311.494 151.557 C 308.966 152.370,306.601 153.180,306.240 153.358 C 305.647 153.650,301.722 154.986,288.342 159.453 C 285.903 160.267,281.100 161.901,277.668 163.084 C 274.236 164.267,269.064 166.029,266.174 166.999 C 263.284 167.969,255.452 170.635,248.768 172.923 C 242.085 175.211,234.253 177.869,231.363 178.829 C 228.473 179.789,225.574 180.801,224.921 181.078 L 223.734 181.581 223.237 180.364 C 221.935 177.176,217.301 165.741,213.894 157.307 C 208.524 144.017,206.257 138.425,204.107 133.169 C 197.538 117.109,197.780 118.623,201.560 117.230 C 205.824 115.660,214.508 112.515,221.018 110.183 C 224.179 109.051,229.056 107.302,231.856 106.297 C 234.655 105.291,239.089 103.713,241.708 102.791 C 244.327 101.868,247.154 100.829,247.990 100.482 C 248.827 100.135,251.413 99.192,253.738 98.387 C 256.062 97.581,260.698 95.932,264.039 94.721 C 267.381 93.510,272.332 91.733,275.041 90.770 C 277.750 89.808,282.701 88.033,286.043 86.827 C 289.384 85.621,294.483 83.785,297.373 82.748 C 300.263 81.710,304.992 80.010,307.882 78.970 C 310.772 77.930,315.722 76.152,318.883 75.019 C 322.044 73.887,327.143 72.054,330.213 70.947 C 333.284 69.840,338.013 68.137,340.722 67.162 C 348.368 64.411,356.314 61.542,362.069 59.453 C 364.959 58.405,367.413 57.530,367.523 57.509 C 367.633 57.488,368.024 58.247,368.392 59.195 M43.779 72.564 C 45.440 73.099,49.680 74.373,53.202 75.397 C 65.389 78.938,71.461 80.710,78.982 82.920 C 89.258 85.940,96.095 87.935,104.269 90.302 C 108.062 91.400,112.053 92.587,113.136 92.939 C 114.220 93.291,117.767 94.344,121.018 95.279 C 124.269 96.215,129.885 97.847,133.498 98.907 C 147.138 102.910,152.358 104.432,156.979 105.751 C 159.598 106.499,162.923 107.485,164.368 107.942 C 166.876 108.736,173.053 110.544,184.893 113.952 C 192.641 116.182,196.163 117.295,196.634 117.660 C 197.520 118.348,196.858 120.002,191.817 129.710 C 188.942 135.246,185.078 142.723,183.231 146.325 C 181.384 149.926,177.216 157.972,173.968 164.204 C 170.721 170.435,166.875 177.824,165.422 180.624 C 163.970 183.424,162.731 185.777,162.669 185.854 C 162.607 185.931,160.082 185.215,157.058 184.262 C 147.179 181.151,139.181 178.634,133.498 176.848 C 130.427 175.883,125.107 174.207,121.675 173.124 C 118.243 172.041,112.258 170.169,108.374 168.963 C 104.491 167.758,98.580 165.912,95.238 164.861 C 82.411 160.828,79.566 159.938,77.340 159.262 C 76.076 158.879,73.268 157.994,71.100 157.296 C 68.933 156.598,65.460 155.512,63.383 154.882 C 61.305 154.253,59.163 153.571,58.621 153.368 C 58.079 153.166,55.049 152.210,51.888 151.246 C 41.987 148.224,38.354 147.096,35.304 146.098 C 33.678 145.566,31.092 144.760,29.557 144.305 C 28.021 143.851,23.957 142.586,20.525 141.496 C 17.094 140.405,12.586 138.984,10.509 138.338 C 8.432 137.692,6.616 137.065,6.474 136.944 C 6.331 136.823,7.624 134.027,9.347 130.730 C 11.070 127.433,12.479 124.681,12.479 124.615 C 12.479 124.548,16.857 116.101,22.207 105.843 C 27.557 95.585,33.635 83.867,35.715 79.803 C 38.981 73.422,40.078 71.593,40.640 71.593 C 40.706 71.593,42.119 72.030,43.779 72.564 M197.373 223.500 C 197.373 278.851,197.326 324.138,197.269 324.138 C 197.121 324.138,190.715 322.181,169.294 315.592 C 165.681 314.481,160.287 312.847,157.307 311.961 C 154.327 311.074,151.076 310.053,150.082 309.690 C 149.089 309.327,146.059 308.371,143.350 307.565 C 135.117 305.116,129.752 303.472,125.616 302.132 C 123.448 301.429,119.754 300.311,117.406 299.648 C 115.057 298.984,112.898 298.317,112.606 298.166 C 112.315 298.014,109.359 297.076,106.038 296.082 C 95.993 293.073,91.288 291.636,88.013 290.577 C 84.872 289.561,77.257 287.250,68.144 284.547 C 65.435 283.743,62.406 282.796,61.412 282.443 C 59.781 281.862,53.213 279.836,44.089 277.100 L 40.722 276.090 40.722 212.717 L 40.722 149.343 41.790 149.556 C 42.377 149.674,45.369 150.572,48.440 151.554 C 51.511 152.535,56.905 154.241,60.427 155.344 C 63.949 156.448,69.343 158.146,72.414 159.118 C 75.484 160.089,79.031 161.184,80.296 161.549 C 81.560 161.915,84.627 162.883,87.112 163.701 C 89.596 164.519,91.813 165.189,92.038 165.189 C 92.398 165.189,92.525 203.480,92.166 203.838 C 92.048 203.956,82.882 201.310,73.727 198.514 C 69.754 197.301,64.064 195.565,61.084 194.656 C 55.152 192.847,53.123 192.487,52.373 193.110 C 51.321 193.983,52.072 195.718,53.695 196.160 C 54.562 196.397,62.987 198.977,64.039 199.329 C 64.491 199.480,65.969 199.923,67.323 200.314 C 68.678 200.704,71.117 201.445,72.742 201.959 C 75.541 202.845,76.522 203.144,82.430 204.913 C 83.785 205.319,85.928 206.000,87.192 206.426 C 88.456 206.853,90.119 207.361,90.887 207.555 L 92.282 207.907 92.282 225.136 C 92.282 234.612,92.172 242.362,92.036 242.358 C 91.901 242.354,89.130 241.533,85.878 240.533 C 82.627 239.533,78.046 238.147,75.698 237.452 C 73.350 236.758,69.803 235.672,67.816 235.039 C 65.829 234.407,63.317 233.633,62.233 233.320 C 61.149 233.007,58.204 232.106,55.687 231.318 C 50.514 229.698,49.925 229.627,49.109 230.529 C 47.518 232.287,48.724 233.052,56.979 235.518 C 71.268 239.788,73.164 240.362,74.548 240.832 C 75.361 241.108,78.095 241.944,80.624 242.690 C 83.153 243.436,85.665 244.185,86.207 244.354 C 90.453 245.680,92.529 246.379,93.017 246.648 C 95.865 248.217,95.895 248.020,95.895 227.368 C 95.895 207.773,95.799 208.629,97.912 209.380 C 99.418 209.916,110.496 213.323,117.734 215.477 C 125.154 217.685,127.414 218.503,127.565 219.033 C 127.644 219.312,128.014 220.870,128.387 222.496 C 128.760 224.122,129.660 228.038,130.388 231.199 C 131.116 234.360,132.013 238.276,132.381 239.901 C 135.816 255.071,136.529 256.937,138.424 255.695 C 138.875 255.399,139.245 254.893,139.245 254.570 C 139.245 253.704,136.818 242.176,135.638 237.438 C 135.076 235.180,134.113 231.028,133.497 228.210 C 132.881 225.392,132.075 221.959,131.706 220.581 C 130.817 217.262,130.819 217.252,132.430 216.734 C 144.559 212.835,152.005 201.933,151.675 188.557 C 151.612 186.000,151.560 183.908,151.561 183.908 C 151.561 183.908,153.039 184.334,154.845 184.854 C 156.651 185.375,159.228 186.189,160.573 186.663 C 163.618 187.737,162.139 189.790,171.429 171.593 C 174.011 166.535,176.668 161.363,177.332 160.099 C 177.997 158.834,182.657 149.864,187.687 140.165 C 192.718 130.466,196.955 122.605,197.103 122.696 C 197.251 122.788,197.373 168.150,197.373 223.500 M203.120 133.826 C 203.720 135.452,204.535 137.521,204.932 138.424 C 205.330 139.327,206.223 141.544,206.918 143.350 C 207.614 145.156,209.306 149.368,210.679 152.709 C 212.052 156.051,213.821 160.411,214.611 162.397 C 217.829 170.496,219.145 173.748,220.700 177.438 C 221.597 179.569,222.334 181.564,222.337 181.871 C 222.347 183.034,222.893 183.462,223.717 182.954 C 224.967 182.183,225.330 182.043,228.736 181.018 C 232.608 179.852,232.326 179.740,231.833 182.247 C 230.656 188.231,232.752 197.378,236.254 201.541 L 237.081 202.523 236.229 204.956 C 228.795 226.198,257.435 242.262,271.792 224.903 C 272.438 224.121,273.088 223.354,273.236 223.199 C 273.383 223.043,274.145 223.348,274.929 223.877 C 294.648 237.164,321.520 225.679,325.590 202.226 C 326.102 199.275,326.075 199.311,329.238 197.373 C 346.926 186.535,343.720 158.324,323.955 150.884 C 322.716 150.418,321.566 149.952,321.401 149.850 C 321.100 149.664,324.043 148.612,333.627 145.476 C 336.408 144.567,338.814 143.742,338.973 143.643 C 339.631 143.236,368.980 133.340,369.540 133.335 C 369.676 133.334,369.787 162.282,369.787 197.663 L 369.787 261.993 368.062 262.683 C 367.114 263.062,364.491 264.023,362.233 264.817 C 358.419 266.159,355.529 267.200,340.722 272.562 C 337.652 273.674,333.071 275.318,330.542 276.216 C 328.013 277.114,324.392 278.433,322.496 279.147 C 320.599 279.862,316.314 281.411,312.972 282.590 C 309.631 283.769,305.567 285.249,303.941 285.877 C 302.315 286.506,299.064 287.677,296.716 288.478 C 294.368 289.280,289.565 290.992,286.043 292.283 C 282.521 293.575,277.422 295.419,274.713 296.381 C 268.752 298.499,260.779 301.364,253.695 303.933 C 247.410 306.212,239.843 308.920,232.677 311.455 C 229.787 312.477,227.126 313.457,226.765 313.633 C 226.404 313.809,224.113 314.630,221.675 315.458 C 219.236 316.286,216.798 317.169,216.256 317.420 C 215.714 317.672,212.980 318.676,210.181 319.652 C 207.381 320.628,203.653 321.942,201.897 322.572 C 200.140 323.201,198.625 323.639,198.530 323.544 C 198.272 323.286,198.322 123.626,198.580 123.368 C 198.812 123.136,201.247 128.745,203.120 133.826 M316.871 152.010 C 317.209 152.348,318.613 152.876,319.992 153.182 C 337.459 157.068,343.500 179.932,330.330 192.314 C 326.969 195.473,326.208 195.657,325.907 193.383 C 325.642 191.386,324.789 190.331,323.711 190.668 C 322.606 191.012,322.561 191.231,322.562 196.190 C 322.567 215.600,305.881 229.297,286.937 225.433 C 281.566 224.337,274.695 220.633,275.108 219.055 C 275.327 218.218,274.123 217.078,273.259 217.304 C 272.850 217.411,271.964 218.512,271.047 220.055 C 259.068 240.193,229.790 222.967,241.079 202.423 C 242.893 199.122,242.262 197.274,239.860 198.847 C 238.838 199.517,238.654 199.373,237.372 196.896 C 234.794 191.914,234.420 187.981,235.752 179.840 L 235.961 178.563 241.215 176.837 C 244.105 175.888,251.938 173.235,258.621 170.942 C 265.304 168.649,272.693 166.129,275.041 165.344 C 277.389 164.559,282.340 162.880,286.043 161.613 C 320.027 149.988,316.079 151.218,316.871 152.010 M100.000 167.739 C 101.806 168.299,105.870 169.572,109.031 170.568 C 112.192 171.565,116.534 172.908,118.680 173.554 C 120.826 174.199,122.716 174.810,122.879 174.911 C 123.042 175.012,124.612 175.511,126.366 176.020 C 128.121 176.529,131.256 177.481,133.333 178.136 C 135.411 178.791,138.810 179.838,140.887 180.464 C 142.964 181.089,144.959 181.732,145.320 181.892 C 145.681 182.053,146.369 182.341,146.849 182.532 C 147.783 182.905,147.692 182.445,148.259 189.674 C 149.117 200.602,138.884 213.039,127.981 214.320 C 126.085 214.543,126.796 214.731,110.181 209.611 C 106.388 208.442,101.658 207.005,99.672 206.417 L 96.059 205.348 95.974 185.889 C 95.907 170.369,95.973 166.460,96.303 166.575 C 96.530 166.655,98.194 167.178,100.000 167.739 " stroke="none" fill="#0c0b09" fill-rule="evenodd"></path><path id="path2" d="M207.882 11.362 C 205.624 12.174,201.782 13.556,199.343 14.435 C 196.905 15.314,192.250 16.986,188.998 18.151 C 182.424 20.506,175.310 23.064,167.159 26.003 C 164.179 27.077,159.302 28.827,156.322 29.890 C 153.342 30.953,148.391 32.731,145.320 33.842 C 142.250 34.952,137.447 36.660,134.647 37.638 C 131.847 38.615,129.261 39.561,128.900 39.741 C 128.539 39.920,126.174 40.789,123.645 41.671 C 114.534 44.850,108.502 47.006,106.568 47.774 C 105.484 48.204,102.972 49.088,100.985 49.738 C 98.998 50.388,97.003 51.118,96.552 51.360 C 96.100 51.603,93.588 52.506,90.969 53.367 C 88.350 54.228,86.059 55.040,85.878 55.173 C 85.698 55.305,83.333 56.192,80.624 57.143 C 75.663 58.885,68.868 61.310,57.964 65.229 C 54.713 66.398,49.925 68.083,47.326 68.973 C 41.771 70.876,41.904 70.792,43.727 71.259 C 44.513 71.461,47.299 72.280,49.918 73.078 C 52.537 73.877,56.675 75.105,59.113 75.807 C 63.616 77.104,73.206 79.908,85.386 83.490 C 89.089 84.579,94.557 86.170,97.537 87.026 C 100.517 87.881,104.729 89.113,106.897 89.764 C 109.064 90.414,112.389 91.400,114.286 91.954 C 116.182 92.509,120.764 93.853,124.466 94.942 C 128.169 96.030,133.933 97.706,137.274 98.666 C 140.616 99.626,144.310 100.724,145.484 101.106 C 146.658 101.488,149.688 102.382,152.217 103.094 C 158.939 104.985,170.125 108.262,171.264 108.673 C 171.806 108.869,174.836 109.764,177.997 110.662 C 181.158 111.560,186.552 113.128,189.984 114.146 C 193.415 115.163,196.741 116.149,197.374 116.337 C 198.401 116.641,199.138 116.463,204.270 114.678 C 214.163 111.237,218.488 109.691,220.525 108.870 C 221.609 108.433,224.860 107.250,227.750 106.240 C 230.640 105.231,235.222 103.608,237.931 102.634 C 240.640 101.660,245.296 99.986,248.276 98.915 C 251.256 97.844,256.059 96.138,258.949 95.124 C 261.839 94.111,264.499 93.129,264.860 92.944 C 265.222 92.758,267.512 91.938,269.951 91.121 C 272.389 90.303,274.828 89.429,275.369 89.177 C 275.911 88.926,278.350 88.043,280.788 87.215 C 283.227 86.387,285.517 85.564,285.878 85.385 C 286.240 85.207,288.826 84.260,291.626 83.283 C 294.425 82.305,299.450 80.523,302.791 79.323 C 306.133 78.123,311.084 76.350,313.793 75.382 C 319.352 73.397,328.398 70.147,335.961 67.419 C 342.173 65.178,349.813 62.448,356.814 59.968 C 359.704 58.944,362.512 57.907,363.054 57.663 C 363.596 57.420,364.594 57.044,365.271 56.828 C 366.492 56.438,366.733 56.044,366.233 55.256 C 365.998 54.887,359.355 52.826,350.036 50.231 C 348.114 49.695,345.084 48.808,343.303 48.259 C 341.523 47.710,337.256 46.468,333.823 45.498 C 330.389 44.529,327.212 43.578,326.762 43.385 C 326.312 43.192,323.454 42.359,320.411 41.533 C 317.368 40.707,314.634 39.898,314.336 39.736 C 314.037 39.573,310.837 38.610,307.225 37.596 C 303.612 36.582,297.701 34.886,294.089 33.827 C 290.476 32.768,284.491 31.014,280.788 29.927 C 264.326 25.099,260.341 23.934,256.486 22.828 C 254.228 22.179,250.755 21.147,248.768 20.534 C 246.782 19.921,243.235 18.887,240.887 18.237 C 238.539 17.586,235.287 16.623,233.662 16.097 C 232.036 15.570,228.342 14.466,225.452 13.644 C 222.562 12.822,218.424 11.634,216.256 11.004 C 211.573 9.643,212.813 9.590,207.882 11.362 M378.348 84.893 C 378.348 85.074,378.560 85.591,378.818 86.043 C 379.076 86.494,379.287 86.716,379.287 86.535 C 379.287 86.355,379.076 85.837,378.818 85.386 C 378.560 84.934,378.348 84.713,378.348 84.893 M231.363 106.580 C 230.542 106.975,230.514 107.021,231.199 106.854 C 232.129 106.626,233.175 106.093,232.677 106.100 C 232.496 106.103,231.905 106.319,231.363 106.580 M20.854 108.703 C 20.574 109.245,20.418 109.688,20.509 109.688 C 20.599 109.688,20.902 109.245,21.182 108.703 C 21.462 108.161,21.618 107.718,21.528 107.718 C 21.437 107.718,21.134 108.161,20.854 108.703 M12.479 124.795 C 12.111 125.517,11.883 126.108,11.974 126.108 C 12.064 126.108,12.439 125.517,12.808 124.795 C 13.176 124.072,13.404 123.481,13.314 123.481 C 13.224 123.481,12.848 124.072,12.479 124.795 M357.800 135.480 C 356.978 135.875,356.951 135.921,357.635 135.753 C 358.566 135.526,359.612 134.993,359.113 135.000 C 358.933 135.003,358.342 135.219,357.800 135.480 M38.259 146.974 C 38.801 147.222,39.540 147.422,39.901 147.418 C 40.263 147.414,39.893 147.201,39.080 146.945 C 37.257 146.371,36.964 146.381,38.259 146.974 M89.163 162.890 C 89.524 163.045,90.041 163.172,90.312 163.172 C 90.622 163.172,90.562 163.068,90.148 162.890 C 89.787 162.735,89.269 162.608,88.998 162.608 C 88.688 162.608,88.749 162.712,89.163 162.890 " stroke="none" fill="#ab643c" fill-rule="evenodd"></path><path id="path3" d="M35.521 76.040 C 34.971 77.248,35.076 77.506,35.671 76.408 C 35.949 75.895,36.115 75.414,36.040 75.339 C 35.965 75.264,35.731 75.580,35.521 76.040 M313.300 152.575 C 312.126 153.024,309.097 154.062,306.568 154.882 C 304.039 155.701,301.076 156.723,299.983 157.152 C 298.890 157.581,296.156 158.535,293.908 159.270 C 291.659 160.006,287.011 161.573,283.580 162.752 C 280.148 163.931,274.754 165.769,271.593 166.835 C 268.432 167.902,263.038 169.740,259.606 170.918 C 256.174 172.097,251.149 173.799,248.440 174.701 C 245.731 175.603,241.898 176.912,239.924 177.611 L 236.334 178.882 235.855 180.984 C 234.230 188.119,236.894 199.669,239.853 198.320 C 242.770 196.991,243.263 199.031,241.073 203.373 C 234.231 216.939,245.087 231.219,259.862 228.088 C 264.020 227.207,269.153 223.289,270.879 219.677 C 272.477 216.334,274.715 215.785,275.339 218.584 C 276.093 221.969,285.391 225.616,293.268 225.616 C 310.572 225.616,323.260 211.767,322.241 193.991 C 322.119 191.866,322.193 191.321,322.674 190.789 C 323.922 189.410,326.088 190.500,326.131 192.529 C 326.190 195.218,326.866 195.088,330.325 191.726 C 343.101 179.306,337.146 157.684,319.804 153.527 C 318.485 153.211,317.100 152.676,316.728 152.338 C 315.890 151.579,315.906 151.578,313.300 152.575 " stroke="none" fill="#fbfbfb" fill-rule="evenodd"></path><path id="path4" d="M93.021 50.464 C 92.349 50.735,92.556 51.184,93.268 50.998 C 93.629 50.904,93.924 50.696,93.924 50.536 C 93.924 50.223,93.668 50.203,93.021 50.464 M368.378 56.158 C 368.472 56.519,368.666 56.814,368.809 56.814 C 368.952 56.814,368.991 56.519,368.896 56.158 C 368.802 55.796,368.608 55.501,368.465 55.501 C 368.323 55.501,368.283 55.796,368.378 56.158 M380.166 85.194 C 380.276 85.480,380.510 85.714,380.686 85.714 C 381.118 85.714,380.848 84.968,380.357 84.804 C 380.117 84.724,380.044 84.874,380.166 85.194 M384.247 95.093 C 384.241 95.284,384.453 95.728,384.719 96.078 C 384.984 96.429,385.205 96.559,385.211 96.368 C 385.217 96.177,385.005 95.734,384.740 95.383 C 384.474 95.032,384.253 94.902,384.247 95.093 M22.852 100.375 C 22.539 101.191,22.884 101.302,23.302 100.521 C 23.504 100.144,23.531 99.836,23.364 99.836 C 23.196 99.836,22.966 100.079,22.852 100.375 M388.082 104.762 C 388.177 105.123,388.384 105.419,388.544 105.419 C 388.887 105.419,388.899 105.314,388.635 104.625 C 388.345 103.871,387.879 103.986,388.082 104.762 M19.467 107.471 C 18.861 108.256,18.682 108.703,18.976 108.703 C 19.138 108.703,19.439 108.333,19.645 107.882 C 20.050 106.993,19.973 106.817,19.467 107.471 M15.011 115.931 C 14.917 116.291,14.958 116.585,15.102 116.585 C 15.488 116.585,15.781 115.649,15.458 115.449 C 15.306 115.355,15.105 115.572,15.011 115.931 M10.849 123.788 C 10.421 124.588,10.416 124.891,10.836 124.632 C 11.363 124.306,11.895 123.153,11.517 123.153 C 11.337 123.153,11.036 123.439,10.849 123.788 M395.641 124.117 C 395.526 124.557,395.613 124.693,395.932 124.571 C 396.449 124.372,396.529 123.936,396.096 123.668 C 395.936 123.569,395.731 123.771,395.641 124.117 M6.973 131.363 C 6.746 131.727,6.705 132.020,6.882 132.020 C 7.058 132.020,7.360 131.724,7.553 131.363 C 7.747 131.002,7.787 130.706,7.644 130.706 C 7.500 130.706,7.198 131.002,6.973 131.363 M367.980 133.838 C 367.159 134.233,367.132 134.279,367.816 134.111 C 368.747 133.884,369.793 133.351,369.294 133.358 C 369.113 133.361,368.522 133.577,367.980 133.838 M185.714 144.171 C 185.434 144.713,185.279 145.156,185.369 145.156 C 185.459 145.156,185.762 144.713,186.043 144.171 C 186.323 143.629,186.478 143.186,186.388 143.186 C 186.298 143.186,185.994 143.629,185.714 144.171 M40.874 149.836 C 40.466 150.910,40.893 275.973,41.305 276.056 C 41.536 276.103,41.573 276.066,41.388 275.974 C 40.851 275.708,40.925 149.859,41.461 149.643 C 41.783 149.513,41.781 149.472,41.451 149.451 C 41.220 149.437,40.960 149.610,40.874 149.836 M181.609 152.053 C 181.241 152.775,181.013 153.366,181.103 153.366 C 181.194 153.366,181.569 152.775,181.938 152.053 C 182.306 151.330,182.534 150.739,182.444 150.739 C 182.353 150.739,181.978 151.330,181.609 152.053 M333.169 156.650 C 334.242 157.734,335.193 158.621,335.283 158.621 C 335.374 158.621,334.570 157.734,333.498 156.650 C 332.425 155.567,331.474 154.680,331.383 154.680 C 331.293 154.680,332.097 155.567,333.169 156.650 M284.893 162.081 C 284.072 162.476,284.045 162.522,284.729 162.354 C 285.660 162.127,286.706 161.594,286.207 161.601 C 286.026 161.604,285.435 161.820,284.893 162.081 M274.220 165.681 C 273.588 165.925,273.292 166.129,273.563 166.134 C 273.834 166.140,274.499 165.941,275.041 165.693 C 276.309 165.113,275.719 165.104,274.220 165.681 M92.159 166.023 C 92.046 166.316,91.971 166.950,91.992 167.432 C 92.020 168.089,92.094 167.979,92.286 166.995 C 92.558 165.599,92.498 165.139,92.159 166.023 M95.989 168.309 C 95.991 169.212,96.055 169.542,96.131 169.043 C 96.206 168.544,96.204 167.805,96.126 167.401 C 96.048 166.997,95.986 167.406,95.989 168.309 M250.636 173.623 C 249.857 173.899,249.278 174.182,249.349 174.253 C 249.499 174.403,252.545 173.403,252.545 173.204 C 252.545 172.998,252.171 173.080,250.636 173.623 M337.350 175.369 C 337.350 176.002,337.418 176.260,337.501 175.944 C 337.583 175.628,337.583 175.111,337.501 174.795 C 337.418 174.479,337.350 174.737,337.350 175.369 M239.901 177.368 C 238.998 177.716,238.659 177.925,239.148 177.832 C 240.300 177.613,241.708 177.076,241.708 176.855 C 241.708 176.761,241.671 176.695,241.626 176.709 C 241.580 176.723,240.805 177.019,239.901 177.368 M229.064 181.128 C 228.243 181.524,228.215 181.569,228.900 181.402 C 229.830 181.175,230.876 180.641,230.378 180.649 C 230.197 180.651,229.606 180.867,229.064 181.128 M333.485 194.171 L 331.856 195.895 333.580 194.265 C 335.182 192.751,335.454 192.447,335.209 192.447 C 335.157 192.447,334.382 193.222,333.485 194.171 M328.079 193.800 C 326.934 194.804,326.934 194.805,327.987 194.105 C 328.568 193.718,329.131 193.260,329.238 193.088 C 329.554 192.576,329.292 192.737,328.079 193.800 M322.250 194.253 C 322.254 194.975,322.321 195.232,322.400 194.824 C 322.478 194.415,322.475 193.824,322.393 193.510 C 322.311 193.196,322.247 193.530,322.250 194.253 M51.252 194.134 C 51.241 194.430,51.490 194.955,51.806 195.299 C 52.122 195.644,52.276 195.763,52.148 195.564 C 52.020 195.365,51.770 194.841,51.594 194.399 C 51.391 193.892,51.266 193.794,51.252 194.134 M147.500 194.637 C 147.475 195.028,147.370 195.619,147.266 195.950 C 147.087 196.520,147.097 196.521,147.452 195.968 C 147.658 195.646,147.763 195.055,147.685 194.654 C 147.544 193.925,147.544 193.925,147.500 194.637 M54.844 196.880 C 56.343 197.458,56.933 197.449,55.665 196.868 C 55.123 196.620,54.458 196.422,54.187 196.427 C 53.916 196.433,54.212 196.637,54.844 196.880 M240.887 198.267 C 241.860 198.507,242.360 199.010,242.403 199.794 C 242.435 200.384,242.465 200.399,242.596 199.893 C 242.798 199.111,241.794 198.019,240.918 198.068 C 240.256 198.104,240.255 198.112,240.887 198.267 M67.652 200.821 C 68.284 201.064,69.023 201.264,69.294 201.264 C 69.565 201.264,69.269 201.064,68.637 200.821 C 68.005 200.578,67.266 200.378,66.995 200.378 C 66.724 200.378,67.020 200.578,67.652 200.821 M319.444 209.369 C 318.959 210.357,318.632 211.166,318.717 211.166 C 318.938 211.166,320.595 207.842,320.447 207.694 C 320.380 207.627,319.928 208.380,319.444 209.369 M322.728 211.339 C 322.243 212.328,321.916 213.136,322.001 213.136 C 322.222 213.136,323.879 209.812,323.731 209.665 C 323.664 209.597,323.212 210.351,322.728 211.339 M122.989 213.465 C 123.350 213.620,123.867 213.747,124.138 213.747 C 124.448 213.747,124.388 213.643,123.974 213.465 C 123.612 213.309,123.095 213.182,122.824 213.182 C 122.514 213.182,122.575 213.287,122.989 213.465 M126.359 214.354 C 126.767 214.432,127.358 214.429,127.672 214.347 C 127.986 214.265,127.652 214.201,126.929 214.204 C 126.207 214.208,125.950 214.275,126.359 214.354 M313.778 217.488 L 312.479 218.883 313.875 217.585 C 315.173 216.378,315.422 216.092,315.173 216.092 C 315.120 216.092,314.492 216.720,313.778 217.488 M318.042 218.473 L 317.077 219.540 318.144 218.576 C 318.732 218.045,319.212 217.565,319.212 217.508 C 319.212 217.255,318.941 217.478,318.042 218.473 M239.737 217.857 C 239.737 218.211,241.042 220.690,241.228 220.690 C 241.319 220.690,241.076 220.062,240.689 219.294 C 239.928 217.784,239.737 217.497,239.737 217.857 M310.509 220.076 C 308.567 221.530,308.310 221.926,310.082 220.734 C 310.931 220.163,311.715 219.550,311.825 219.372 C 312.114 218.905,311.973 218.980,310.509 220.076 M236.782 220.487 C 236.782 220.839,237.759 222.660,237.948 222.660 C 238.038 222.660,237.868 222.180,237.569 221.593 C 236.960 220.394,236.782 220.144,236.782 220.487 M315.086 221.429 L 314.122 222.496 315.189 221.531 C 315.776 221.001,316.256 220.521,316.256 220.464 C 316.256 220.210,315.985 220.434,315.086 221.429 M243.664 223.727 C 244.470 224.585,245.172 225.287,245.224 225.287 C 245.471 225.287,245.210 224.993,243.760 223.632 L 242.200 222.167 243.664 223.727 M275.371 224.632 C 275.590 224.988,277.504 226.054,277.504 225.821 C 277.504 225.744,276.978 225.370,276.335 224.991 C 275.692 224.611,275.258 224.450,275.371 224.632 M270.608 226.437 C 269.810 227.250,269.231 227.915,269.321 227.915 C 269.412 227.915,270.138 227.250,270.936 226.437 C 271.734 225.624,272.312 224.959,272.222 224.959 C 272.132 224.959,271.405 225.624,270.608 226.437 M95.895 235.818 C 95.895 242.073,95.768 245.955,95.548 246.409 C 95.214 247.102,95.219 247.105,95.713 246.489 C 96.207 245.871,96.544 225.944,96.059 225.944 C 95.969 225.944,95.895 230.387,95.895 235.818 M254.442 228.812 C 255.215 228.882,256.397 228.881,257.069 228.810 C 257.742 228.740,257.110 228.683,255.665 228.684 C 254.220 228.685,253.670 228.743,254.442 228.812 M290.399 229.792 C 290.898 229.868,291.637 229.866,292.041 229.788 C 292.445 229.710,292.036 229.648,291.133 229.651 C 290.230 229.653,289.899 229.717,290.399 229.792 M294.503 229.789 C 294.912 229.867,295.503 229.864,295.817 229.782 C 296.131 229.700,295.796 229.636,295.074 229.639 C 294.351 229.643,294.094 229.710,294.503 229.789 M48.403 230.716 C 48.104 231.174,47.918 231.607,47.991 231.680 C 48.064 231.753,48.373 231.379,48.677 230.849 C 49.355 229.668,49.154 229.571,48.403 230.716 M134.384 231.691 C 134.384 232.053,134.502 232.718,134.647 233.169 C 134.855 233.819,134.910 233.853,134.910 233.333 C 134.910 232.972,134.792 232.307,134.647 231.856 C 134.439 231.205,134.384 231.171,134.384 231.691 M254.755 232.749 C 255.338 232.822,256.372 232.823,257.053 232.752 C 257.735 232.681,257.258 232.622,255.993 232.620 C 254.729 232.619,254.172 232.677,254.755 232.749 M81.609 243.350 C 81.970 243.505,82.488 243.632,82.759 243.632 C 83.069 243.632,83.008 243.528,82.594 243.350 C 82.233 243.195,81.716 243.068,81.445 243.068 C 81.134 243.068,81.195 243.172,81.609 243.350 M351.786 268.205 C 351.007 268.480,350.428 268.764,350.498 268.835 C 350.648 268.984,353.695 267.984,353.695 267.785 C 353.695 267.580,353.321 267.662,351.786 268.205 M341.051 272.097 C 340.230 272.492,340.202 272.538,340.887 272.371 C 341.817 272.143,342.863 271.610,342.365 271.618 C 342.184 271.620,341.593 271.836,341.051 272.097 M38.752 276.026 C 38.752 276.478,38.900 276.847,39.080 276.847 C 39.261 276.847,39.409 276.478,39.409 276.026 C 39.409 275.575,39.261 275.205,39.080 275.205 C 38.900 275.205,38.752 275.575,38.752 276.026 M329.782 276.086 C 329.003 276.362,328.424 276.645,328.495 276.716 C 328.645 276.866,331.691 275.866,331.691 275.667 C 331.691 275.461,331.318 275.543,329.782 276.086 M53.530 279.967 C 54.163 280.211,54.901 280.410,55.172 280.410 C 55.443 280.410,55.148 280.211,54.516 279.967 C 53.883 279.724,53.144 279.525,52.874 279.525 C 52.603 279.525,52.898 279.724,53.530 279.967 M309.195 283.591 C 308.374 283.987,308.347 284.032,309.031 283.865 C 309.962 283.638,311.008 283.104,310.509 283.112 C 310.328 283.114,309.737 283.330,309.195 283.591 M91.461 291.626 C 91.823 291.781,92.340 291.908,92.611 291.908 C 92.921 291.908,92.861 291.804,92.447 291.626 C 92.085 291.470,91.568 291.343,91.297 291.343 C 90.987 291.343,91.047 291.448,91.461 291.626 M129.557 303.296 C 130.099 303.544,130.764 303.742,131.034 303.737 C 131.305 303.731,131.010 303.528,130.378 303.284 C 128.878 302.707,128.288 302.715,129.557 303.296 M180.624 319.048 C 181.256 319.291,181.995 319.490,182.266 319.490 C 182.537 319.490,182.241 319.291,181.609 319.048 C 180.977 318.804,180.238 318.605,179.967 318.605 C 179.696 318.605,179.992 318.804,180.624 319.048 M211.002 319.059 C 210.180 319.455,210.153 319.500,210.837 319.333 C 211.768 319.106,212.814 318.572,212.315 318.580 C 212.135 318.582,211.544 318.798,211.002 319.059 M199.836 323.000 C 199.015 323.396,198.987 323.441,199.672 323.274 C 200.602 323.046,201.648 322.513,201.149 322.521 C 200.969 322.523,200.378 322.739,199.836 323.000 " stroke="none" fill="#9b8872" fill-rule="evenodd"></path><path id="path5" d="M211.002 10.028 C 210.239 10.395,210.202 10.449,210.837 10.267 C 211.289 10.138,212.176 10.051,212.808 10.074 C 213.704 10.107,213.813 10.056,213.300 9.843 C 212.390 9.465,212.128 9.486,211.002 10.028 M222.824 12.950 C 225.691 13.864,227.151 14.233,226.897 13.980 C 226.656 13.739,221.307 12.155,220.854 12.191 C 220.673 12.205,221.560 12.546,222.824 12.950 M201.868 13.196 C 200.818 13.562,200.016 13.919,200.087 13.989 C 200.236 14.139,204.269 12.812,204.269 12.614 C 204.269 12.399,203.895 12.490,201.868 13.196 M191.863 16.815 C 190.368 17.371,189.203 17.884,189.273 17.954 C 189.421 18.102,195.074 16.097,195.074 15.897 C 195.074 15.660,194.628 15.788,191.863 16.815 M236.289 16.890 C 239.156 17.805,240.615 18.174,240.362 17.921 C 240.121 17.680,234.772 16.096,234.319 16.131 C 234.138 16.146,235.025 16.487,236.289 16.890 M182.184 18.617 C 181.868 18.700,181.609 18.890,181.609 19.041 C 181.609 19.191,181.905 19.237,182.266 19.143 C 182.627 19.048,182.923 18.840,182.923 18.681 C 182.923 18.521,182.886 18.408,182.841 18.429 C 182.796 18.450,182.500 18.535,182.184 18.617 M180.381 20.933 C 179.073 21.405,178.061 21.849,178.132 21.919 C 178.275 22.062,183.251 20.347,183.251 20.154 C 183.251 19.938,182.800 20.060,180.381 20.933 M249.128 20.676 C 250.049 21.004,251.305 21.358,251.920 21.463 C 252.535 21.567,251.929 21.289,250.575 20.845 C 247.743 19.916,246.625 19.785,249.128 20.676 M171.264 24.186 C 170.542 24.465,169.540 24.847,169.037 25.034 C 168.535 25.222,168.183 25.436,168.256 25.509 C 168.391 25.643,172.740 24.085,173.025 23.800 C 173.309 23.517,172.592 23.674,171.264 24.186 M260.427 23.921 C 261.042 24.305,266.053 25.683,266.221 25.514 C 266.325 25.410,262.780 24.315,260.591 23.776 C 260.080 23.650,260.044 23.682,260.427 23.921 M159.363 28.487 C 158.055 28.958,157.047 29.406,157.122 29.481 C 157.266 29.625,161.067 28.356,161.905 27.884 C 162.813 27.372,161.760 27.622,159.363 28.487 M273.892 27.853 C 274.517 28.255,279.516 29.624,279.697 29.443 C 279.772 29.369,278.621 28.981,277.139 28.582 C 275.658 28.182,274.211 27.783,273.923 27.696 C 273.472 27.559,273.467 27.581,273.892 27.853 M148.346 32.431 C 147.121 32.884,146.173 33.310,146.240 33.377 C 146.388 33.525,149.838 32.358,150.650 31.885 C 151.577 31.346,150.748 31.542,148.346 32.431 M287.356 31.795 C 287.990 32.204,292.954 33.592,293.135 33.411 C 293.211 33.335,292.084 32.948,290.630 32.549 C 289.177 32.151,287.735 31.747,287.426 31.651 C 286.959 31.507,286.947 31.531,287.356 31.795 M137.508 36.349 C 136.282 36.814,135.334 37.250,135.402 37.318 C 135.539 37.455,139.875 35.932,140.160 35.647 C 140.504 35.303,139.721 35.511,137.508 36.349 M300.493 35.612 C 300.493 35.788,304.401 36.974,305.911 37.256 C 306.453 37.358,305.804 37.081,304.470 36.642 C 301.516 35.671,300.493 35.406,300.493 35.612 M126.991 40.126 C 125.941 40.492,125.140 40.849,125.211 40.920 C 125.383 41.092,128.487 40.056,128.883 39.694 C 129.282 39.330,129.262 39.334,126.991 40.126 M314.497 39.736 C 314.652 39.882,315.954 40.328,317.390 40.726 C 318.826 41.125,320.230 41.520,320.510 41.604 C 320.958 41.739,320.960 41.719,320.522 41.432 C 319.872 41.005,314.130 39.389,314.497 39.736 M117.570 43.508 C 116.938 43.757,115.493 44.288,114.360 44.687 C 113.227 45.087,112.354 45.469,112.422 45.536 C 112.554 45.668,118.880 43.463,119.154 43.188 C 119.442 42.901,118.765 43.037,117.570 43.508 M327.094 43.437 C 327.343 43.716,333.361 45.402,333.524 45.239 C 333.603 45.160,332.446 44.758,330.955 44.344 C 327.124 43.281,326.910 43.231,327.094 43.437 M104.319 48.275 C 102.100 49.085,101.010 49.594,101.505 49.588 C 101.775 49.585,107.193 47.597,107.344 47.445 C 107.659 47.130,106.830 47.357,104.319 48.275 M340.586 47.426 C 340.661 47.501,342.126 47.964,343.842 48.456 C 345.558 48.948,347.184 49.415,347.455 49.495 C 347.893 49.623,347.893 49.604,347.455 49.325 C 346.649 48.811,340.178 47.022,340.586 47.426 M96.059 51.236 C 95.698 51.394,94.475 51.849,93.342 52.246 C 92.209 52.643,91.334 53.020,91.398 53.084 C 91.576 53.262,96.317 51.597,96.687 51.227 C 97.070 50.845,96.946 50.846,96.059 51.236 M356.158 52.030 C 359.024 52.945,360.484 53.314,360.230 53.060 C 359.989 52.819,354.641 51.236,354.187 51.271 C 354.007 51.285,354.893 51.627,356.158 52.030 M85.386 55.080 C 85.115 55.181,83.666 55.703,82.167 56.240 C 80.667 56.778,79.499 57.277,79.572 57.350 C 79.738 57.516,85.437 55.495,85.862 55.119 C 86.207 54.815,86.117 54.807,85.386 55.080 M366.362 55.548 C 366.543 56.356,366.435 56.455,364.805 56.984 C 362.986 57.574,361.709 58.340,363.405 57.823 C 367.049 56.713,367.254 56.566,366.641 55.501 L 366.169 54.680 366.362 55.548 M368.979 57.778 C 368.860 57.970,368.928 58.128,369.130 58.128 C 369.332 58.128,369.419 58.254,369.324 58.408 C 369.229 58.562,369.379 58.969,369.657 59.311 C 369.936 59.654,370.070 59.750,369.956 59.525 C 369.843 59.300,369.688 58.800,369.614 58.413 C 369.443 57.523,369.253 57.334,368.979 57.778 M72.496 58.026 C 72.180 58.109,71.921 58.299,71.921 58.450 C 71.921 58.600,72.217 58.646,72.578 58.552 C 72.939 58.457,73.235 58.249,73.235 58.090 C 73.235 57.930,73.198 57.817,73.153 57.838 C 73.108 57.859,72.812 57.943,72.496 58.026 M71.654 59.994 C 70.334 60.451,69.311 60.882,69.382 60.953 C 69.521 61.092,74.217 59.554,74.492 59.279 C 74.795 58.977,74.080 59.157,71.654 59.994 M356.814 59.946 C 355.993 60.341,355.966 60.387,356.650 60.220 C 357.581 59.992,358.627 59.459,358.128 59.467 C 357.947 59.469,357.356 59.685,356.814 59.946 M353.110 61.165 C 352.156 61.531,351.428 61.883,351.493 61.947 C 351.635 62.090,355.665 60.751,355.665 60.561 C 355.665 60.307,354.839 60.502,353.110 61.165 M61.157 63.778 C 59.662 64.333,58.496 64.845,58.566 64.915 C 58.694 65.043,64.063 63.140,64.332 62.871 C 64.646 62.557,63.761 62.810,61.157 63.778 M343.421 64.671 C 342.015 65.178,340.759 65.711,340.630 65.854 C 340.500 65.997,340.690 66.002,341.051 65.863 C 341.412 65.725,342.729 65.259,343.978 64.827 C 346.122 64.086,346.955 63.688,346.278 63.729 C 346.112 63.739,344.827 64.163,343.421 64.671 M347.947 64.544 C 347.126 64.939,347.099 64.985,347.783 64.817 C 348.714 64.590,349.760 64.057,349.261 64.064 C 349.080 64.067,348.489 64.283,347.947 64.544 M50.144 67.712 C 49.094 68.078,48.292 68.435,48.363 68.505 C 48.512 68.654,52.545 67.328,52.545 67.129 C 52.545 66.915,52.170 67.006,50.144 67.712 M373.312 68.449 C 373.614 69.262,373.919 69.869,373.991 69.797 C 374.186 69.601,373.396 67.360,373.058 67.151 C 372.896 67.052,373.011 67.635,373.312 68.449 M332.583 68.555 C 331.357 69.009,330.409 69.435,330.476 69.502 C 330.624 69.650,334.074 68.483,334.887 68.010 C 335.813 67.471,334.985 67.667,332.583 68.555 M38.145 71.121 C 37.926 71.602,37.903 71.876,38.091 71.760 C 38.573 71.462,39.152 70.279,38.816 70.279 C 38.658 70.279,38.356 70.658,38.145 71.121 M39.882 72.104 C 39.272 72.592,39.277 72.599,39.996 72.250 C 40.409 72.049,41.074 71.977,41.474 72.089 C 42.045 72.249,42.095 72.219,41.708 71.948 C 41.030 71.473,40.626 71.507,39.882 72.104 M47.452 72.612 C 49.076 73.136,50.539 73.520,50.704 73.466 C 51.026 73.358,45.287 71.571,44.796 71.626 C 44.633 71.645,45.828 72.088,47.452 72.612 M321.596 72.493 C 320.288 72.965,319.276 73.409,319.347 73.479 C 319.490 73.622,324.466 71.907,324.466 71.714 C 324.466 71.498,324.015 71.620,321.596 72.493 M326.929 72.097 C 326.108 72.492,326.081 72.538,326.765 72.371 C 327.696 72.143,328.742 71.610,328.243 71.618 C 328.062 71.620,327.471 71.836,326.929 72.097 M42.857 72.578 C 43.218 72.733,43.736 72.860,44.007 72.860 C 44.317 72.860,44.256 72.756,43.842 72.578 C 43.481 72.423,42.964 72.296,42.693 72.296 C 42.382 72.296,42.443 72.400,42.857 72.578 M58.148 75.650 C 58.403 75.923,64.097 77.556,64.252 77.401 C 64.322 77.331,63.231 76.944,61.828 76.541 C 58.130 75.477,57.945 75.432,58.148 75.650 M310.242 76.579 C 309.192 76.945,308.391 77.302,308.461 77.372 C 308.610 77.521,312.644 76.195,312.644 75.996 C 312.644 75.782,312.269 75.873,310.242 76.579 M314.122 76.695 C 313.300 77.090,313.273 77.136,313.957 76.969 C 314.888 76.741,315.934 76.208,315.435 76.215 C 315.255 76.218,314.663 76.434,314.122 76.695 M377.405 78.497 C 377.782 79.404,378.147 80.090,378.216 80.021 C 378.371 79.867,377.097 76.847,376.877 76.847 C 376.790 76.847,377.028 77.590,377.405 78.497 M71.634 79.600 C 71.908 79.908,76.536 81.209,76.716 81.029 C 76.793 80.952,75.857 80.621,74.635 80.295 C 73.413 79.969,72.192 79.627,71.921 79.536 C 71.650 79.445,71.521 79.473,71.634 79.600 M299.243 80.514 C 297.743 81.067,296.572 81.575,296.641 81.644 C 296.766 81.769,302.174 79.873,302.434 79.613 C 302.744 79.303,301.831 79.561,299.243 80.514 M83.744 83.174 C 83.993 83.453,90.011 85.139,90.175 84.976 C 90.253 84.898,89.097 84.495,87.605 84.081 C 83.774 83.018,83.560 82.968,83.744 83.174 M288.943 84.197 C 287.378 84.760,285.988 85.331,285.854 85.464 C 285.553 85.767,291.036 83.928,291.852 83.453 C 292.821 82.889,291.966 83.108,288.943 84.197 M293.658 83.968 C 292.879 84.244,292.299 84.527,292.370 84.598 C 292.520 84.748,295.567 83.748,295.567 83.549 C 295.567 83.343,295.193 83.425,293.658 83.968 M83.251 84.401 C 83.612 84.556,84.130 84.683,84.401 84.683 C 84.711 84.683,84.650 84.579,84.236 84.401 C 83.875 84.245,83.358 84.118,83.087 84.118 C 82.777 84.118,82.837 84.223,83.251 84.401 M381.053 87.685 C 381.257 88.227,381.527 88.670,381.653 88.670 C 381.778 88.670,381.713 88.227,381.509 87.685 C 381.304 87.143,381.034 86.700,380.909 86.700 C 380.784 86.700,380.848 87.143,381.053 87.685 M97.865 87.301 C 98.624 87.771,104.486 89.384,104.690 89.179 C 104.790 89.080,104.775 88.998,104.657 88.998 C 104.540 88.998,103.148 88.625,101.565 88.169 C 97.406 86.970,97.284 86.942,97.865 87.301 M278.104 88.113 C 276.538 88.690,275.142 89.277,275.003 89.418 C 274.864 89.558,276.217 89.142,278.010 88.493 C 279.803 87.844,281.334 87.249,281.412 87.170 C 281.729 86.854,280.814 87.114,278.104 88.113 M110.701 91.104 C 110.776 91.179,112.241 91.642,113.957 92.134 C 115.673 92.626,117.299 93.093,117.570 93.173 C 117.999 93.299,117.998 93.275,117.564 92.991 C 116.785 92.480,110.286 90.694,110.701 91.104 M267.593 91.898 C 265.173 92.739,263.594 93.559,265.555 92.956 C 267.683 92.301,270.608 91.228,270.608 91.103 C 270.608 90.881,270.226 90.982,267.593 91.898 M110.181 92.282 C 110.542 92.438,111.059 92.565,111.330 92.565 C 111.641 92.565,111.580 92.460,111.166 92.282 C 110.805 92.127,110.287 92.000,110.016 92.000 C 109.706 92.000,109.767 92.105,110.181 92.282 M26.002 94.828 C 25.549 95.796,25.471 96.138,25.797 95.731 C 26.589 94.741,27.311 93.268,27.003 93.268 C 26.854 93.268,26.403 93.970,26.002 94.828 M124.165 95.045 C 124.241 95.120,125.706 95.583,127.422 96.075 C 129.138 96.567,130.764 97.034,131.034 97.114 C 131.472 97.242,131.472 97.223,131.034 96.944 C 130.229 96.430,123.758 94.642,124.165 95.045 M258.292 95.242 C 257.931 95.401,256.708 95.855,255.575 96.252 C 254.442 96.649,253.571 97.030,253.639 97.099 C 253.762 97.221,259.475 95.294,259.743 95.040 C 259.990 94.804,258.963 94.948,258.292 95.242 M385.082 97.537 C 385.394 98.350,385.786 99.163,385.953 99.343 C 386.120 99.524,386.002 99.007,385.690 98.194 C 385.378 97.381,384.986 96.568,384.819 96.388 C 384.651 96.207,384.770 96.724,385.082 97.537 M25.780 98.851 C 25.500 99.392,25.344 99.836,25.435 99.836 C 25.525 99.836,25.828 99.392,26.108 98.851 C 26.389 98.309,26.544 97.865,26.454 97.865 C 26.363 97.865,26.060 98.309,25.780 98.851 M245.556 99.810 C 244.150 100.318,242.894 100.850,242.764 100.993 C 242.635 101.137,242.824 101.141,243.186 101.003 C 243.547 100.865,244.864 100.399,246.112 99.967 C 248.256 99.225,249.090 98.828,248.413 98.869 C 248.247 98.879,246.962 99.303,245.556 99.810 M138.752 99.339 C 139.428 99.676,144.648 101.110,144.767 100.991 C 144.835 100.923,143.879 100.570,142.642 100.206 C 140.349 99.532,138.160 99.043,138.752 99.339 M153.695 103.786 C 156.370 104.672,157.609 104.954,157.248 104.593 C 157.024 104.370,151.652 102.798,151.232 102.833 C 151.051 102.848,152.159 103.277,153.695 103.786 M234.226 103.858 C 233.273 104.224,232.545 104.576,232.610 104.640 C 232.752 104.782,236.782 103.443,236.782 103.254 C 236.782 103.000,235.956 103.195,234.226 103.858 M21.511 107.061 C 21.230 107.603,21.075 108.046,21.165 108.046 C 21.256 108.046,21.559 107.603,21.839 107.061 C 22.119 106.519,22.275 106.076,22.184 106.076 C 22.094 106.076,21.791 106.519,21.511 107.061 M389.076 107.393 C 389.361 108.117,389.653 108.650,389.726 108.578 C 389.884 108.419,388.935 106.076,388.713 106.076 C 388.628 106.076,388.791 106.668,389.076 107.393 M167.159 107.726 C 169.834 108.613,171.073 108.895,170.713 108.534 C 170.489 108.311,165.117 106.738,164.696 106.774 C 164.516 106.789,165.624 107.218,167.159 107.726 M223.531 107.716 C 221.208 108.565,220.231 109.031,220.777 109.031 C 221.065 109.031,226.394 107.048,226.565 106.878 C 226.871 106.572,226.019 106.807,223.531 107.716 M161.741 107.389 C 162.102 107.544,162.619 107.671,162.890 107.671 C 163.200 107.671,163.140 107.567,162.726 107.389 C 162.365 107.234,161.847 107.107,161.576 107.107 C 161.266 107.107,161.327 107.211,161.741 107.389 M180.624 111.667 C 183.299 112.554,184.538 112.836,184.177 112.475 C 183.954 112.251,178.581 110.679,178.161 110.715 C 177.980 110.730,179.089 111.158,180.624 111.667 M213.793 111.237 C 213.522 111.338,212.514 111.710,211.554 112.064 C 210.593 112.418,209.859 112.760,209.924 112.825 C 210.045 112.946,214.496 111.394,214.746 111.143 C 214.934 110.956,214.410 111.007,213.793 111.237 M217.241 111.506 C 216.420 111.901,216.393 111.947,217.077 111.780 C 218.008 111.552,219.054 111.019,218.555 111.026 C 218.374 111.029,217.783 111.245,217.241 111.506 M17.406 114.943 C 17.037 115.665,16.809 116.256,16.900 116.256 C 16.990 116.256,17.365 115.665,17.734 114.943 C 18.103 114.220,18.330 113.629,18.240 113.629 C 18.150 113.629,17.774 114.220,17.406 114.943 M192.282 115.084 C 195.149 115.999,196.609 116.368,196.355 116.114 C 196.114 115.873,190.765 114.290,190.312 114.325 C 190.131 114.339,191.018 114.681,192.282 115.084 M202.463 115.311 C 201.018 115.836,199.319 116.397,198.686 116.557 C 197.988 116.733,197.806 116.860,198.223 116.880 C 198.900 116.913,204.283 115.163,205.250 114.597 C 206.130 114.082,205.156 114.331,202.463 115.311 M14.188 118.070 C 13.795 118.878,13.542 119.540,13.626 119.540 C 13.849 119.540,15.176 116.873,15.027 116.724 C 14.959 116.655,14.581 117.261,14.188 118.070 M13.465 122.496 C 13.096 123.218,12.868 123.810,12.959 123.810 C 13.049 123.810,13.425 123.218,13.793 122.496 C 14.162 121.773,14.389 121.182,14.299 121.182 C 14.209 121.182,13.833 121.773,13.465 122.496 M197.044 223.415 L 197.209 324.302 197.291 223.662 C 197.337 168.310,197.263 122.911,197.127 122.776 C 196.991 122.640,196.954 167.928,197.044 223.415 M198.577 123.372 C 198.273 123.676,198.300 323.407,198.604 323.595 C 198.740 323.678,198.851 278.613,198.851 223.450 C 198.851 168.286,198.838 123.153,198.823 123.153 C 198.808 123.153,198.697 123.251,198.577 123.372 M10.919 124.548 C 10.739 124.774,10.344 125.476,10.042 126.108 C 9.373 127.506,10.209 126.609,11.035 125.041 C 11.534 124.094,11.476 123.850,10.919 124.548 M193.596 125.780 C 193.316 126.322,193.160 126.765,193.251 126.765 C 193.341 126.765,193.644 126.322,193.924 125.780 C 194.205 125.238,194.360 124.795,194.270 124.795 C 194.179 124.795,193.876 125.238,193.596 125.780 M384.236 126.601 C 383.604 126.844,383.309 127.048,383.580 127.054 C 383.851 127.059,384.516 126.861,385.057 126.613 C 386.326 126.032,385.736 126.024,384.236 126.601 M6.568 133.005 C 6.200 133.727,5.972 134.319,6.062 134.319 C 6.152 134.319,6.528 133.727,6.897 133.005 C 7.265 132.282,7.493 131.691,7.403 131.691 C 7.312 131.691,6.937 132.282,6.568 133.005 M369.619 197.701 C 369.619 233.194,369.657 247.713,369.704 229.967 C 369.751 212.221,369.751 183.181,369.704 165.435 C 369.657 147.689,369.619 162.209,369.619 197.701 M360.099 134.823 C 359.277 135.218,359.250 135.264,359.934 135.097 C 360.865 134.869,361.911 134.336,361.412 134.343 C 361.232 134.346,360.640 134.562,360.099 134.823 M349.918 138.287 C 349.015 138.636,348.676 138.845,349.164 138.752 C 350.316 138.533,351.724 137.995,351.724 137.775 C 351.724 137.680,351.687 137.614,351.642 137.628 C 351.597 137.642,350.821 137.939,349.918 138.287 M10.509 138.424 C 11.141 138.667,11.880 138.866,12.151 138.866 C 12.422 138.866,12.126 138.667,11.494 138.424 C 10.862 138.180,10.123 137.981,9.852 137.981 C 9.581 137.981,9.877 138.180,10.509 138.424 M13.465 140.879 C 13.465 141.022,13.760 141.216,14.122 141.310 C 14.483 141.405,14.778 141.365,14.778 141.223 C 14.778 141.080,14.483 140.886,14.122 140.792 C 13.760 140.697,13.465 140.736,13.465 140.879 M186.371 142.529 C 186.091 143.071,185.936 143.514,186.026 143.514 C 186.116 143.514,186.419 143.071,186.700 142.529 C 186.980 141.987,187.135 141.544,187.045 141.544 C 186.954 141.544,186.651 141.987,186.371 142.529 M23.645 142.480 C 23.916 142.639,24.581 142.864,25.123 142.982 C 25.754 143.118,25.931 143.091,25.616 142.906 C 25.345 142.747,24.680 142.522,24.138 142.404 C 23.507 142.268,23.330 142.295,23.645 142.480 M209.547 146.634 C 209.547 146.814,209.758 147.332,210.016 147.783 C 210.275 148.235,210.486 148.456,210.486 148.276 C 210.486 148.095,210.275 147.578,210.016 147.126 C 209.758 146.675,209.547 146.453,209.547 146.634 M328.900 146.950 C 327.632 147.531,328.221 147.540,329.721 146.962 C 330.353 146.719,330.649 146.515,330.378 146.509 C 330.107 146.504,329.442 146.702,328.900 146.950 M39.570 212.315 C 39.570 247.176,39.608 261.388,39.655 243.898 C 39.702 226.409,39.702 197.886,39.655 180.516 C 39.608 163.145,39.570 177.455,39.570 212.315 M315.764 149.929 C 314.938 150.327,314.912 150.372,315.599 150.206 C 316.051 150.097,316.561 149.877,316.732 149.717 C 317.158 149.319,316.924 149.370,315.764 149.929 M303.284 154.199 C 302.463 154.594,302.436 154.640,303.120 154.473 C 304.050 154.245,305.096 153.712,304.598 153.719 C 304.417 153.722,303.826 153.938,303.284 154.199 M178.325 155.337 C 177.957 156.059,177.729 156.650,177.819 156.650 C 177.909 156.650,178.285 156.059,178.654 155.337 C 179.022 154.614,179.250 154.023,179.159 154.023 C 179.069 154.023,178.694 154.614,178.325 155.337 M329.064 157.738 C 329.064 157.795,329.544 158.275,330.131 158.806 L 331.199 159.770 330.234 158.703 C 329.335 157.708,329.064 157.485,329.064 157.738 M69.787 158.468 C 70.328 158.716,70.993 158.915,71.264 158.909 C 71.535 158.904,71.240 158.700,70.608 158.456 C 69.108 157.879,68.518 157.888,69.787 158.468 M85.057 161.741 C 85.690 161.984,86.429 162.183,86.700 162.183 C 86.970 162.183,86.675 161.984,86.043 161.741 C 85.411 161.497,84.672 161.298,84.401 161.298 C 84.130 161.298,84.425 161.497,85.057 161.741 M174.220 163.218 C 173.940 163.760,173.784 164.204,173.875 164.204 C 173.965 164.204,174.268 163.760,174.548 163.218 C 174.829 162.677,174.984 162.233,174.894 162.233 C 174.803 162.233,174.500 162.677,174.220 163.218 M97.701 165.693 C 98.243 165.941,98.908 166.140,99.179 166.134 C 99.450 166.129,99.154 165.925,98.522 165.681 C 97.023 165.104,96.433 165.113,97.701 165.693 M217.100 165.353 C 217.100 165.534,217.312 166.051,217.570 166.502 C 217.828 166.954,218.039 167.176,218.039 166.995 C 218.039 166.814,217.828 166.297,217.570 165.846 C 217.312 165.394,217.100 165.172,217.100 165.353 M269.027 165.742 C 268.248 166.017,267.669 166.301,267.740 166.371 C 267.811 166.442,268.670 166.216,269.649 165.869 C 270.628 165.521,271.207 165.238,270.936 165.239 C 270.665 165.240,269.806 165.466,269.027 165.742 M91.877 186.043 C 91.829 195.887,91.901 203.941,92.036 203.941 C 92.172 203.941,92.282 195.887,92.282 186.043 C 92.282 176.199,92.211 168.144,92.124 168.144 C 92.036 168.144,91.926 176.199,91.877 186.043 M257.964 169.634 C 257.143 170.029,257.115 170.075,257.800 169.908 C 258.730 169.680,259.776 169.147,259.278 169.155 C 259.097 169.157,258.506 169.373,257.964 169.634 M96.055 187.657 C 96.059 203.115,96.122 205.381,96.552 205.498 C 96.913 205.597,96.936 205.556,96.637 205.344 C 96.323 205.122,96.209 201.020,96.140 187.503 L 96.050 169.951 96.055 187.657 M169.787 171.757 C 169.418 172.479,169.190 173.071,169.281 173.071 C 169.371 173.071,169.746 172.479,170.115 171.757 C 170.484 171.034,170.711 170.443,170.621 170.443 C 170.531 170.443,170.155 171.034,169.787 171.757 M123.810 173.892 C 124.442 174.135,125.181 174.334,125.452 174.334 C 125.722 174.334,125.427 174.135,124.795 173.892 C 124.163 173.648,123.424 173.449,123.153 173.449 C 122.882 173.449,123.177 173.648,123.810 173.892 M135.304 177.504 C 135.936 177.748,136.675 177.947,136.946 177.947 C 137.217 177.947,136.921 177.748,136.289 177.504 C 135.657 177.261,134.918 177.061,134.647 177.061 C 134.376 177.061,134.672 177.261,135.304 177.504 M233.662 177.821 C 232.393 178.401,232.983 178.410,234.483 177.833 C 235.115 177.589,235.411 177.385,235.140 177.380 C 234.869 177.374,234.204 177.573,233.662 177.821 M224.384 180.963 C 223.285 181.405,223.490 181.629,224.631 181.232 C 225.172 181.043,225.616 180.829,225.616 180.756 C 225.616 180.561,225.216 180.628,224.384 180.963 M148.440 181.560 C 148.711 181.719,149.376 181.945,149.918 182.062 C 150.548 182.198,150.726 182.171,150.411 181.986 C 150.140 181.828,149.475 181.602,148.933 181.485 C 148.302 181.348,148.125 181.376,148.440 181.560 M225.944 181.846 C 225.493 181.927,224.994 182.117,224.837 182.268 C 224.679 182.420,225.097 182.420,225.766 182.269 C 226.434 182.118,227.068 181.908,227.174 181.802 C 227.375 181.601,227.293 181.604,225.944 181.846 M162.714 185.241 C 162.594 185.435,162.040 185.508,161.463 185.406 C 160.663 185.265,160.577 185.293,161.084 185.528 C 162.076 185.988,162.798 185.934,163.009 185.386 C 163.226 184.820,163.033 184.725,162.714 185.241 M234.913 186.700 C 234.915 187.783,234.976 188.187,235.049 187.597 C 235.122 187.006,235.121 186.120,235.046 185.626 C 234.971 185.133,234.911 185.616,234.913 186.700 M231.282 186.700 C 231.285 187.422,231.352 187.679,231.431 187.270 C 231.510 186.862,231.507 186.271,231.424 185.957 C 231.342 185.643,231.278 185.977,231.282 186.700 M151.851 189.819 C 151.851 192.077,151.903 193.001,151.967 191.872 C 152.031 190.743,152.031 188.896,151.967 187.767 C 151.903 186.638,151.851 187.562,151.851 189.819 M329.703 192.693 L 328.571 193.924 329.803 192.793 C 330.949 191.739,331.185 191.461,330.935 191.461 C 330.880 191.461,330.326 192.016,329.703 192.693 M52.075 193.079 C 51.760 193.427,51.572 193.981,51.657 194.311 C 51.788 194.817,51.818 194.801,51.850 194.211 C 51.902 193.254,52.484 192.848,54.027 192.691 L 55.337 192.557 53.992 192.502 C 53.031 192.462,52.483 192.627,52.075 193.079 M322.572 196.388 C 322.572 197.020,322.640 197.278,322.722 196.962 C 322.805 196.646,322.805 196.129,322.722 195.813 C 322.640 195.497,322.572 195.755,322.572 196.388 M139.717 208.621 L 138.752 209.688 139.819 208.723 C 140.814 207.824,141.038 207.553,140.784 207.553 C 140.727 207.553,140.247 208.034,139.717 208.621 M92.106 222.989 C 92.106 231.388,92.148 234.823,92.200 230.624 C 92.252 226.424,92.252 219.553,92.200 215.353 C 92.148 211.154,92.106 214.589,92.106 222.989 M143.986 209.606 L 143.021 210.673 144.089 209.709 C 145.084 208.810,145.307 208.539,145.053 208.539 C 144.997 208.539,144.516 209.019,143.986 209.606 M96.043 209.283 C 95.955 209.512,95.925 213.392,95.977 217.904 L 96.071 226.108 96.147 217.679 C 96.205 211.302,96.323 209.210,96.634 209.084 C 96.955 208.955,96.953 208.913,96.624 208.893 C 96.392 208.879,96.131 209.054,96.043 209.283 M234.910 211.494 C 234.910 212.488,234.971 212.894,235.046 212.397 C 235.122 211.901,235.122 211.088,235.046 210.591 C 234.971 210.094,234.910 210.501,234.910 211.494 M238.518 211.658 C 238.520 212.562,238.584 212.892,238.659 212.393 C 238.735 211.894,238.733 211.155,238.655 210.751 C 238.577 210.347,238.515 210.755,238.518 211.658 M267.980 223.810 C 267.183 224.622,266.604 225.287,266.694 225.287 C 266.784 225.287,267.511 224.622,268.309 223.810 C 269.106 222.997,269.685 222.332,269.595 222.332 C 269.505 222.332,268.778 222.997,267.980 223.810 M240.722 226.108 C 241.335 226.741,241.910 227.258,242.001 227.258 C 242.091 227.258,241.664 226.741,241.051 226.108 C 240.438 225.476,239.863 224.959,239.773 224.959 C 239.682 224.959,240.110 225.476,240.722 226.108 M296.305 229.455 C 296.622 229.537,297.139 229.537,297.455 229.455 C 297.771 229.372,297.512 229.304,296.880 229.304 C 296.248 229.304,295.989 229.372,296.305 229.455 M58.292 232.184 C 58.654 232.339,59.171 232.466,59.442 232.466 C 59.752 232.466,59.692 232.362,59.278 232.184 C 58.916 232.029,58.399 231.902,58.128 231.902 C 57.818 231.902,57.878 232.006,58.292 232.184 M254.608 232.426 C 255.471 232.494,256.801 232.493,257.563 232.424 C 258.325 232.355,257.619 232.299,255.993 232.300 C 254.368 232.301,253.744 232.358,254.608 232.426 M92.059 240.394 C 92.059 241.568,92.119 242.048,92.192 241.461 C 92.264 240.874,92.264 239.914,92.192 239.327 C 92.119 238.740,92.059 239.220,92.059 240.394 M62.726 282.923 C 63.358 283.166,64.097 283.365,64.368 283.365 C 64.639 283.365,64.343 283.166,63.711 282.923 C 63.079 282.679,62.340 282.480,62.069 282.480 C 61.798 282.480,62.094 282.679,62.726 282.923 M74.548 286.535 C 75.181 286.779,75.920 286.978,76.190 286.978 C 76.461 286.978,76.166 286.779,75.534 286.535 C 74.901 286.292,74.163 286.093,73.892 286.093 C 73.621 286.093,73.916 286.292,74.548 286.535 M300.657 286.875 C 299.836 287.271,299.808 287.316,300.493 287.149 C 301.423 286.922,302.469 286.389,301.970 286.396 C 301.790 286.399,301.199 286.614,300.657 286.875 M278.654 294.757 C 277.832 295.153,277.805 295.198,278.489 295.031 C 279.420 294.803,280.466 294.270,279.967 294.278 C 279.787 294.280,279.195 294.496,278.654 294.757 M113.136 298.370 C 113.678 298.618,114.343 298.816,114.614 298.811 C 114.885 298.805,114.589 298.601,113.957 298.358 C 112.458 297.781,111.868 297.789,113.136 298.370 M268.637 298.358 C 268.186 298.616,267.964 298.827,268.144 298.827 C 268.325 298.827,268.842 298.616,269.294 298.358 C 269.745 298.100,269.967 297.889,269.787 297.889 C 269.606 297.889,269.089 298.100,268.637 298.358 M151.888 310.345 C 152.250 310.500,152.767 310.627,153.038 310.627 C 153.348 310.627,153.288 310.523,152.874 310.345 C 152.512 310.190,151.995 310.063,151.724 310.063 C 151.414 310.063,151.474 310.167,151.888 310.345 M163.711 313.957 C 164.072 314.113,164.589 314.240,164.860 314.240 C 165.171 314.240,165.110 314.135,164.696 313.957 C 164.335 313.802,163.818 313.675,163.547 313.675 C 163.236 313.675,163.297 313.779,163.711 313.957 M176.519 317.898 C 176.880 318.053,177.397 318.180,177.668 318.180 C 177.979 318.180,177.918 318.076,177.504 317.898 C 177.143 317.743,176.626 317.616,176.355 317.616 C 176.044 317.616,176.105 317.720,176.519 317.898 " stroke="none" fill="#78482a" fill-rule="evenodd"></path></g></svg>